<svg width="202" height="37" viewBox="0 0 202 37" fill="none" xmlns="http://www.w3.org/2000/svg">
<path d="M182.106 0.439246C182.692 -0.146353 183.642 -0.146477 184.228 0.439246L200.895 17.1062C201.176 17.3875 201.334 17.7692 201.334 18.1668C201.334 18.5644 201.176 18.9461 200.895 19.2273L184.228 35.8933C183.642 36.4791 182.692 36.479 182.106 35.8933C181.521 35.3075 181.521 34.358 182.106 33.7723L196.213 19.6668H158.167C157.927 19.6668 157.701 19.6087 157.5 19.5086V19.6668H0V16.6668H157.5V16.824C157.701 16.7241 157.927 16.6668 158.167 16.6668H196.213L182.106 2.56034C181.521 1.97455 181.521 1.02503 182.106 0.439246Z" fill="#E75F00"/>
</svg>
