<svg width="140" height="24" viewBox="0 0 140 24" fill="none" xmlns="http://www.w3.org/2000/svg">
<path d="M4.19346 15.5373C4.37941 15.5541 4.59071 15.5711 4.82738 15.588C5.08095 15.588 5.37677 15.588 5.71487 15.588C7.6927 15.588 9.15494 15.0893 10.1016 14.0919C11.0652 13.0945 11.5469 11.7169 11.5469 9.95877C11.5469 8.11618 11.0905 6.72156 10.1777 5.7749C9.26482 4.82824 7.81948 4.35492 5.84165 4.35492C5.57118 4.35492 5.29226 4.36337 5.00488 4.38027C4.7175 4.38027 4.44703 4.39717 4.19346 4.43099V15.5373ZM15.6294 9.95877C15.6294 11.4802 15.3927 12.8072 14.9194 13.9398C14.4461 15.0724 13.7698 16.0106 12.8908 16.7544C12.0287 17.4982 10.9722 18.0561 9.72125 18.428C8.47031 18.7998 7.06724 18.9858 5.51201 18.9858C4.80202 18.9858 3.9737 18.952 3.02704 18.8844C2.08038 18.8337 1.15064 18.7154 0.237793 18.5294V1.41352C1.15064 1.24448 2.0973 1.1346 3.07776 1.08388C4.07513 1.01627 4.92881 0.982456 5.6388 0.982456C7.14331 0.982456 8.50412 1.1515 9.72125 1.48959C10.9553 1.82769 12.0118 2.36018 12.8908 3.08707C13.7698 3.81397 14.4461 4.74372 14.9194 5.87633C15.3927 7.00893 15.6294 8.36975 15.6294 9.95877ZM25.8052 19.1126C24.5712 19.1126 23.5062 18.9436 22.6102 18.6055C21.7143 18.2505 20.9705 17.7687 20.3788 17.1601C19.8041 16.5347 19.3731 15.7993 19.0856 14.9541C18.8152 14.0919 18.6799 13.1452 18.6799 12.1141V1.18531H22.6356V11.7845C22.6356 12.4945 22.7117 13.103 22.8638 13.6102C23.0328 14.1004 23.2527 14.5061 23.5231 14.8273C23.8105 15.1316 24.1485 15.3513 24.5374 15.4866C24.9431 15.6218 25.3826 15.6894 25.8559 15.6894C26.8195 15.6894 27.597 15.3936 28.1887 14.8019C28.7973 14.2102 29.1016 13.2044 29.1016 11.7845V1.18531H33.0573V12.1141C33.0573 13.1452 32.9136 14.0919 32.6262 14.9541C32.3388 15.8162 31.8993 16.56 31.3076 17.1855C30.7159 17.794 29.9637 18.2673 29.0509 18.6055C28.138 18.9436 27.0562 19.1126 25.8052 19.1126ZM42.719 18.9858C41.7554 18.9858 40.7919 18.952 39.8283 18.8844C38.8817 18.8337 37.8928 18.6984 36.8615 18.4787V1.43888C37.673 1.28674 38.5605 1.17686 39.524 1.10924C40.4876 1.02471 41.3836 0.982456 42.2118 0.982456C43.3275 0.982456 44.3503 1.06698 45.28 1.23603C46.2267 1.38817 47.0381 1.65864 47.7143 2.04744C48.3905 2.43625 48.9145 2.95183 49.2864 3.59421C49.6752 4.21967 49.8696 4.99729 49.8696 5.92704C49.8696 7.33012 49.1935 8.43736 47.8411 9.24878C48.9568 9.67139 49.7175 10.2462 50.1232 10.973C50.5289 11.6999 50.7317 12.5198 50.7317 13.4327C50.7317 15.2752 50.0556 16.6615 48.7032 17.5912C47.3678 18.5209 45.3731 18.9858 42.719 18.9858ZM40.7158 11.0998V15.6387C41.0032 15.6726 41.316 15.6979 41.654 15.7148C41.9921 15.7316 42.364 15.7401 42.7697 15.7401C43.9531 15.7401 44.9082 15.5711 45.635 15.233C46.362 14.8949 46.7254 14.2694 46.7254 13.3566C46.7254 12.5452 46.4211 11.9704 45.8125 11.6323C45.2039 11.2773 44.3334 11.0998 43.2008 11.0998H40.7158ZM40.7158 8.08237H42.6429C43.86 8.08237 44.7307 7.93023 45.2547 7.62595C45.7788 7.30476 46.0407 6.79763 46.0407 6.10454C46.0407 5.39455 45.7703 4.89587 45.2293 4.60848C44.6884 4.3211 43.8939 4.17742 42.8458 4.17742C42.5078 4.17742 42.1443 4.18587 41.7554 4.20277C41.3667 4.20277 41.0201 4.21967 40.7158 4.25349V8.08237ZM65.4161 18.7576C65.2301 18.149 65.0189 17.5236 64.7822 16.8812C64.5625 16.2388 64.3426 15.5965 64.1229 14.9541H57.2766C57.0569 15.5965 56.8287 16.2388 56.5919 16.8812C56.3722 17.5236 56.1694 18.149 55.9834 18.7576H51.8756C52.5349 16.8643 53.1603 15.1147 53.752 13.5087C54.3437 11.9028 54.9184 10.3898 55.4762 8.96986C56.051 7.54988 56.6088 6.20596 57.1498 4.93812C57.7076 3.65338 58.2824 2.40244 58.8741 1.18531H62.6522C63.2269 2.40244 63.7933 3.65338 64.3511 4.93812C64.909 6.20596 65.4668 7.54988 66.0247 8.96986C66.5994 10.3898 67.1826 11.9028 67.7743 13.5087C68.366 15.1147 68.9914 16.8643 69.6507 18.7576H65.4161ZM60.6744 5.16633C60.5898 5.4199 60.463 5.76644 60.294 6.20596C60.125 6.64549 59.9306 7.15262 59.7108 7.72737C59.4911 8.30212 59.2459 8.93604 58.9755 9.62914C58.7219 10.3222 58.4599 11.0491 58.1894 11.8098H63.1847C62.9143 11.0491 62.6522 10.3222 62.3987 9.62914C62.1451 8.93604 61.9 8.30212 61.6633 7.72737C61.4436 7.15262 61.2491 6.64549 61.0801 6.20596C60.9111 5.76644 60.7758 5.4199 60.6744 5.16633ZM71.9253 1.18531H75.881V18.7576H71.9253V1.18531Z" fill="white"/>
<path d="M81.8867 13.6102C81.8867 12.4606 82.0557 11.3534 82.3938 10.2884C82.7488 9.22343 83.2644 8.28523 83.9406 7.47381C84.6167 6.66239 85.4451 6.02001 86.4255 5.54669C87.406 5.05645 88.5301 4.81134 89.798 4.81134C90.3558 4.81134 90.8883 4.8536 91.3955 4.93812C91.9026 5.00574 92.3844 5.14944 92.8408 5.36919L91.9533 7.34702C91.6829 7.19488 91.3616 7.07655 90.9898 6.99203C90.6348 6.9075 90.1698 6.86524 89.5951 6.86524C88.7669 6.86524 88.023 7.0512 87.3637 7.42309C86.7045 7.77809 86.1381 8.25987 85.6648 8.86843C85.2084 9.4601 84.8534 10.1532 84.5998 10.9477C84.3631 11.7253 84.2448 12.5367 84.2448 13.3819C84.2448 13.8215 84.2871 14.2356 84.3716 14.6244C84.4731 15.0133 84.6421 15.3598 84.8788 15.6641C85.1155 15.9515 85.4281 16.1797 85.817 16.3487C86.2227 16.5177 86.7298 16.6023 87.3384 16.6023C87.6427 16.6023 87.9638 16.5769 88.3019 16.5262C88.6401 16.4586 88.9527 16.3825 89.2401 16.298C89.5276 16.2134 89.7811 16.129 90.0008 16.0444C90.2376 15.943 90.4065 15.8501 90.508 15.7655L90.7108 17.7687C90.3897 17.9715 89.8909 18.1659 89.2148 18.3519C88.5386 18.5547 87.7694 18.6562 86.9073 18.6562C86.0959 18.6562 85.3774 18.5379 84.752 18.3012C84.1266 18.0476 83.6024 17.7011 83.1799 17.2615C82.7573 16.8051 82.436 16.2726 82.2163 15.6641C81.9966 15.0386 81.8867 14.354 81.8867 13.6102ZM101.523 18.4787C101.438 18.2927 101.353 18.0898 101.269 17.8701C101.184 17.6334 101.117 17.3883 101.066 17.1348C100.694 17.4729 100.196 17.8109 99.5701 18.149C98.9446 18.4872 98.1755 18.6562 97.2625 18.6562C96.5188 18.6562 95.8764 18.5379 95.3355 18.3012C94.8114 18.0645 94.3803 17.7348 94.0423 17.3123C93.7042 16.8897 93.4506 16.3909 93.2816 15.8162C93.1295 15.2415 93.0534 14.6076 93.0534 13.9144C93.0534 12.7819 93.2393 11.6746 93.6113 10.5927C94 9.51081 94.5748 8.54725 95.3355 7.70202C96.0962 6.85679 97.0513 6.17215 98.2009 5.64812C99.3503 5.12408 100.694 4.86205 102.233 4.86205C102.689 4.86205 103.222 4.91277 103.83 5.01419C104.439 5.11562 104.963 5.28466 105.402 5.52133L103.45 13.4834C103.365 13.8722 103.289 14.2441 103.222 14.5991C103.171 14.9541 103.145 15.3259 103.145 15.7148C103.145 16.1036 103.179 16.5008 103.247 16.9065C103.314 17.2954 103.433 17.718 103.602 18.1744L101.523 18.4787ZM97.7444 16.653C98.4544 16.653 99.063 16.5008 99.5701 16.1966C100.077 15.8923 100.517 15.5373 100.889 15.1316C100.906 14.8441 100.931 14.5484 100.965 14.2441C101.015 13.9229 101.075 13.6017 101.142 13.2805L102.664 6.99203C102.579 6.95821 102.435 6.93286 102.233 6.91596C102.047 6.89906 101.878 6.8906 101.725 6.8906C100.762 6.8906 99.8913 7.07655 99.1137 7.44845C98.336 7.82035 97.6684 8.31904 97.1105 8.9445C96.5695 9.55307 96.147 10.2715 95.8427 11.0998C95.5553 11.9113 95.4116 12.7649 95.4116 13.6609C95.4116 14.0159 95.4453 14.3794 95.513 14.7512C95.5806 15.1062 95.6989 15.4274 95.868 15.7148C96.0539 15.9852 96.2906 16.2134 96.578 16.3994C96.8823 16.5684 97.271 16.653 97.7444 16.653ZM121.553 4.86205C122.297 4.86205 122.922 4.98038 123.43 5.21705C123.954 5.4368 124.368 5.74109 124.672 6.1299C124.993 6.5187 125.221 6.97513 125.357 7.49916C125.492 8.0063 125.559 8.54725 125.559 9.122C125.559 9.4939 125.526 9.89961 125.458 10.3391C125.407 10.7617 125.331 11.1759 125.23 11.5816L123.607 18.3265H121.249L122.745 12.0887C122.829 11.6999 122.922 11.2689 123.024 10.7956C123.142 10.3053 123.201 9.82354 123.201 9.35021C123.201 9.02903 123.159 8.71629 123.075 8.41201C123.007 8.10773 122.88 7.8457 122.694 7.62595C122.525 7.40619 122.28 7.2287 121.959 7.09345C121.638 6.95821 121.24 6.8906 120.767 6.8906C120.226 6.8906 119.702 7.00048 119.195 7.22024C118.688 7.42309 118.265 7.6344 117.927 7.85416C117.961 8.09083 117.986 8.32748 118.003 8.56415C118.037 8.78391 118.054 9.00367 118.054 9.22343C118.054 9.61224 118.02 10.0095 117.952 10.4152C117.902 10.804 117.834 11.1928 117.75 11.5816L116.127 18.3265H113.769L115.265 12.0887C115.349 11.6999 115.442 11.2604 115.544 10.7702C115.645 10.28 115.696 9.78973 115.696 9.2995C115.696 8.97832 115.662 8.67403 115.594 8.38665C115.527 8.08237 115.408 7.82035 115.239 7.60059C115.087 7.38084 114.876 7.21178 114.605 7.09345C114.335 6.95821 113.988 6.8906 113.566 6.8906C113.143 6.8906 112.729 6.91596 112.323 6.96667C111.934 7.01738 111.605 7.085 111.334 7.16952L108.646 18.3265H106.288L109.331 5.64812C110.092 5.41145 110.92 5.22551 111.816 5.09027C112.729 4.93812 113.54 4.86205 114.25 4.86205C114.96 4.86205 115.56 4.98884 116.051 5.24241C116.541 5.47907 116.93 5.80026 117.217 6.20597C117.386 6.08764 117.614 5.9524 117.902 5.80026C118.206 5.64812 118.544 5.50443 118.916 5.36919C119.305 5.23395 119.719 5.11562 120.158 5.01419C120.615 4.91277 121.08 4.86205 121.553 4.86205ZM134.97 4.81134C135.798 4.81134 136.508 4.92967 137.1 5.16634C137.708 5.403 138.207 5.73264 138.596 6.15525C138.985 6.56096 139.272 7.0512 139.458 7.62595C139.661 8.1838 139.762 8.80082 139.762 9.477C139.762 10.6434 139.585 11.776 139.23 12.8748C138.875 13.9567 138.326 14.9202 137.582 15.7655C136.855 16.6108 135.924 17.2869 134.792 17.794C133.677 18.3012 132.349 18.5547 130.811 18.5547C130.625 18.5547 130.422 18.5462 130.203 18.5294C129.983 18.5125 129.788 18.4872 129.619 18.4533L128.529 23.0175H126.171L130.329 5.69883C131.039 5.41145 131.809 5.19169 132.637 5.03955C133.483 4.88741 134.26 4.81134 134.97 4.81134ZM130.101 16.4755C130.27 16.5093 130.447 16.5347 130.634 16.5516C130.837 16.5516 131.031 16.5516 131.217 16.5516C132.181 16.5516 133.043 16.3656 133.803 15.9937C134.564 15.6218 135.207 15.1231 135.73 14.4976C136.272 13.8552 136.685 13.1284 136.973 12.317C137.261 11.4886 137.404 10.6265 137.404 9.73056C137.404 9.35867 137.362 8.99522 137.277 8.64022C137.192 8.28523 137.033 7.97249 136.795 7.70202C136.576 7.43155 136.272 7.22024 135.883 7.0681C135.493 6.89906 134.995 6.81453 134.387 6.81453C133.964 6.81453 133.575 6.85679 133.22 6.94131C132.865 7.00893 132.57 7.07655 132.333 7.14417L130.101 16.4755Z" fill="#E75F00"/>
</svg>
