<svg width="324" height="263" viewBox="0 0 324 263" fill="none" xmlns="http://www.w3.org/2000/svg">
<mask id="path-1-outside-1_5214_19054" maskUnits="userSpaceOnUse" x="0" y="0.119873" width="324" height="263" fill="black">
<rect fill="white" y="0.119873" width="324" height="263"/>
<path d="M3 82.1199C3 37.9371 38.8172 2.11987 83 2.11987H281C303.091 2.11987 321 20.0285 321 42.1199V180.12C321 224.303 285.183 260.12 241 260.12H43C20.9086 260.12 3 242.211 3 220.12V82.1199Z"/>
</mask>
<path d="M3 82.1199C3 37.9371 38.8172 2.11987 83 2.11987H281C303.091 2.11987 321 20.0285 321 42.1199V180.12C321 224.303 285.183 260.12 241 260.12H43C20.9086 260.12 3 242.211 3 220.12V82.1199Z" fill="#090909"/>
<path d="M83 1.18237C83 1.80737 83 2.43237 83 3.05737C100.483 3.16154 117.967 3.2605 135.45 3.35425C183.967 3.6144 232.483 3.83445 281 4.01439C301.3 3.60327 319.455 21.9435 318.895 42.1199C318.757 88.1199 318.655 134.12 318.59 180.12C319.53 221.445 282.273 258.623 241 257.62C175 257.62 109 257.694 43 257.843C22.9143 258.384 4.68812 240.302 5.11359 220.12C4.97729 174.12 4.80494 128.12 4.59654 82.1199C4.31243 58.1275 15.9003 34.3775 34.9804 19.6797C48.5458 9.05712 65.6976 3.10697 83 3.05737C83 2.43237 83 1.80737 83 1.18237C65.2965 1.0203 47.5785 6.91957 33.474 17.7239C13.6407 32.6574 1.33331 57.1536 1.40346 82.1199C1.19506 128.12 1.02271 174.12 0.886415 220.12C0.275742 242.551 20.4728 262.892 43 262.397C109 262.546 175 262.62 241 262.62C284.953 263.689 324.543 224.02 323.41 180.12C323.345 134.12 323.243 88.1199 323.105 42.1199C323.581 19.6833 303.313 -0.39966 281 0.225351C232.483 0.405293 183.967 0.625342 135.45 0.885498C117.967 0.979248 100.483 1.07821 83 1.18237ZM83 3.05737V1.18237V3.05737Z" fill="url(#paint0_linear_5214_19054)" mask="url(#path-1-outside-1_5214_19054)"/>
<path d="M122.015 68.4519H124.415C125.007 67.4279 125.471 66.4119 125.807 65.4039C126.143 64.3959 126.391 63.3719 126.551 62.3319C126.727 61.2919 126.831 60.2199 126.863 59.1159C126.911 58.0119 126.935 56.8519 126.935 55.6359V54.9879H137.927V68.4519H140.783V76.0599H137.183V71.6199H125.615V76.0599H122.015V68.4519ZM130.463 58.1559C130.431 59.0199 130.375 59.9079 130.295 60.8199C130.215 61.7319 130.095 62.6359 129.935 63.5319C129.775 64.4119 129.559 65.2759 129.287 66.1239C129.031 66.9559 128.703 67.7319 128.303 68.4519H134.279V58.1559H130.463ZM142.35 65.4039C142.35 64.2839 142.518 63.3079 142.854 62.4759C143.206 61.6279 143.662 60.9239 144.222 60.3639C144.782 59.8039 145.422 59.3799 146.142 59.0919C146.878 58.8039 147.63 58.6599 148.398 58.6599C150.19 58.6599 151.606 59.2119 152.646 60.3159C153.686 61.4039 154.206 63.0119 154.206 65.1399C154.206 65.3479 154.198 65.5799 154.182 65.8359C154.166 66.0759 154.15 66.2919 154.134 66.4839H146.022C146.102 67.2199 146.446 67.8039 147.054 68.2359C147.662 68.6679 148.478 68.8839 149.502 68.8839C150.158 68.8839 150.798 68.8279 151.422 68.7159C152.062 68.5879 152.582 68.4359 152.982 68.2599L153.462 71.1639C153.27 71.2599 153.014 71.3559 152.694 71.4519C152.374 71.5479 152.014 71.6279 151.614 71.6919C151.23 71.7719 150.814 71.8359 150.366 71.8839C149.918 71.9319 149.47 71.9559 149.022 71.9559C147.886 71.9559 146.894 71.7879 146.046 71.4519C145.214 71.1159 144.518 70.6599 143.958 70.0839C143.414 69.4919 143.006 68.7959 142.734 67.9959C142.478 67.1959 142.35 66.3319 142.35 65.4039ZM150.75 64.0359C150.734 63.7319 150.678 63.4359 150.582 63.1479C150.502 62.8599 150.366 62.6039 150.174 62.3799C149.998 62.1559 149.766 61.9719 149.478 61.8279C149.206 61.6839 148.862 61.6119 148.446 61.6119C148.046 61.6119 147.702 61.6839 147.414 61.8279C147.126 61.9559 146.886 62.1319 146.694 62.3559C146.502 62.5799 146.35 62.8439 146.238 63.1479C146.142 63.4359 146.07 63.7319 146.022 64.0359H150.75ZM167.837 71.6199H164.261V66.6279H160.541V71.6199H156.965V58.9959H160.541V63.6999H164.261V58.9959H167.837V71.6199ZM176.544 69.1239C177.2 69.1239 177.712 69.0039 178.08 68.7639C178.464 68.5079 178.656 68.0999 178.656 67.5399C178.656 67.2519 178.592 67.0119 178.464 66.8199C178.336 66.6119 178.16 66.4519 177.936 66.3399C177.712 66.2119 177.448 66.1239 177.144 66.0759C176.856 66.0279 176.544 66.0039 176.208 66.0039C175.968 66.0039 175.704 66.0199 175.416 66.0519C175.128 66.0839 174.912 66.1159 174.768 66.1479V69.0279C174.96 69.0599 175.216 69.0839 175.536 69.0999C175.856 69.1159 176.192 69.1239 176.544 69.1239ZM174.768 63.4839C174.992 63.4199 175.28 63.3719 175.632 63.3399C176 63.2919 176.416 63.2679 176.88 63.2679C177.632 63.2679 178.328 63.3559 178.968 63.5319C179.624 63.7079 180.192 63.9799 180.672 64.3479C181.152 64.6999 181.528 65.1559 181.8 65.7159C182.072 66.2599 182.208 66.8999 182.208 67.6359C182.208 68.3719 182.08 69.0119 181.824 69.5559C181.568 70.0839 181.2 70.5239 180.72 70.8759C180.24 71.2119 179.664 71.4599 178.992 71.6199C178.336 71.7959 177.6 71.8839 176.784 71.8839C175.728 71.8839 174.76 71.8279 173.88 71.7159C173 71.6199 172.104 71.4599 171.192 71.2359V58.9959H174.768V63.4839Z" fill="white"/>
<path d="M190.504 58.4439C190.968 58.2519 191.448 58.0359 191.944 57.7959C192.456 57.5399 192.952 57.2679 193.432 56.9799C193.912 56.6759 194.368 56.3639 194.8 56.0439C195.248 55.7079 195.648 55.3559 196 54.9879H198.496V71.6199H194.92V59.6439C194.44 59.9639 193.904 60.2599 193.312 60.5319C192.72 60.7879 192.144 61.0119 191.584 61.2039L190.504 58.4439Z" fill="#E75F00"/>
<path d="M85 96.6199H239" stroke="#E75F00"/>
<path d="M52.928 128.068C52.928 127.119 53.0667 126.281 53.344 125.556C53.632 124.831 54.016 124.228 54.496 123.748C54.9867 123.257 55.552 122.889 56.192 122.644C56.8427 122.399 57.5307 122.276 58.256 122.276C58.9707 122.276 59.6427 122.399 60.272 122.644C60.912 122.889 61.472 123.257 61.952 123.748C62.432 124.228 62.8107 124.831 63.088 125.556C63.376 126.281 63.52 127.119 63.52 128.068C63.52 129.017 63.376 129.855 63.088 130.58C62.8107 131.305 62.432 131.913 61.952 132.404C61.472 132.884 60.912 133.247 60.272 133.492C59.6427 133.737 58.9707 133.86 58.256 133.86C57.5307 133.86 56.8427 133.737 56.192 133.492C55.552 133.247 54.9867 132.884 54.496 132.404C54.016 131.913 53.632 131.305 53.344 130.58C53.0667 129.855 52.928 129.017 52.928 128.068ZM54.56 128.068C54.56 128.74 54.6453 129.353 54.816 129.908C54.9867 130.452 55.2267 130.916 55.536 131.3C55.856 131.684 56.24 131.983 56.688 132.196C57.1467 132.399 57.6587 132.5 58.224 132.5C58.7893 132.5 59.296 132.399 59.744 132.196C60.192 131.983 60.5707 131.684 60.88 131.3C61.2 130.916 61.4453 130.452 61.616 129.908C61.7867 129.353 61.872 128.74 61.872 128.068C61.872 127.396 61.7867 126.788 61.616 126.244C61.4453 125.689 61.2 125.22 60.88 124.836C60.5707 124.452 60.192 124.159 59.744 123.956C59.296 123.743 58.7893 123.636 58.224 123.636C57.6587 123.636 57.1467 123.743 56.688 123.956C56.24 124.159 55.856 124.452 55.536 124.836C55.2267 125.22 54.9867 125.689 54.816 126.244C54.6453 126.788 54.56 127.396 54.56 128.068ZM67.6576 125.092C68.1376 125.092 68.5856 125.14 69.0016 125.236C69.4176 125.332 69.775 125.476 70.0736 125.668C70.3723 125.86 70.607 126.1 70.7776 126.388C70.9483 126.676 71.0336 127.012 71.0336 127.396C71.0336 127.641 70.991 127.865 70.9056 128.068C70.8203 128.271 70.7136 128.452 70.5856 128.612C70.4576 128.772 70.3136 128.911 70.1536 129.028C70.0043 129.135 69.8603 129.209 69.7216 129.252C70.2123 129.401 70.5963 129.668 70.8736 130.052C71.1616 130.425 71.3056 130.9 71.3056 131.476C71.3056 132.265 70.9856 132.852 70.3456 133.236C69.7056 133.62 68.8363 133.812 67.7376 133.812C67.0656 133.812 66.4843 133.759 65.9936 133.652C65.5136 133.545 65.1723 133.444 64.9696 133.348L65.2256 132.084C65.3963 132.148 65.7003 132.239 66.1376 132.356C66.5856 132.463 67.119 132.516 67.7376 132.516C68.4096 132.516 68.9216 132.415 69.2736 132.212C69.6256 131.999 69.8016 131.684 69.8016 131.268C69.8016 130.969 69.7323 130.729 69.5936 130.548C69.4656 130.356 69.3003 130.212 69.0976 130.116C68.895 130.02 68.6763 129.956 68.4416 129.924C68.207 129.892 67.9883 129.876 67.7856 129.876H66.3936V128.692H67.7376C67.9296 128.692 68.127 128.681 68.3296 128.66C68.543 128.628 68.735 128.569 68.9056 128.484C69.087 128.399 69.2363 128.281 69.3536 128.132C69.471 127.972 69.5296 127.764 69.5296 127.508C69.5296 127.305 69.4763 127.135 69.3696 126.996C69.2736 126.847 69.1403 126.724 68.9696 126.628C68.799 126.532 68.5963 126.463 68.3616 126.42C68.1376 126.367 67.903 126.34 67.6576 126.34C67.4656 126.34 67.2576 126.356 67.0336 126.388C66.8096 126.42 66.591 126.463 66.3776 126.516C66.1643 126.559 65.9723 126.607 65.8016 126.66C65.631 126.713 65.5083 126.761 65.4336 126.804L65.1616 125.524C65.247 125.492 65.3803 125.449 65.5616 125.396C65.743 125.343 65.9456 125.295 66.1696 125.252C66.4043 125.209 66.6496 125.172 66.9056 125.14C67.1616 125.108 67.4123 125.092 67.6576 125.092ZM80.1898 133.62H78.7018V129.94H74.8618V133.62H73.3738V125.3H74.8618V128.692H78.7018V125.3H80.1898V133.62ZM85.5648 132.548C85.9168 132.548 86.2261 132.543 86.4928 132.532C86.7701 132.511 86.9994 132.479 87.1808 132.436V129.956C87.0741 129.903 86.8981 129.86 86.6528 129.828C86.4181 129.785 86.1301 129.764 85.7888 129.764C85.5648 129.764 85.3248 129.78 85.0688 129.812C84.8234 129.844 84.5941 129.913 84.3808 130.02C84.1781 130.116 84.0074 130.255 83.8688 130.436C83.7301 130.607 83.6608 130.836 83.6608 131.124C83.6608 131.657 83.8314 132.031 84.1728 132.244C84.5141 132.447 84.9781 132.548 85.5648 132.548ZM85.4368 125.092C86.0341 125.092 86.5354 125.172 86.9408 125.332C87.3568 125.481 87.6874 125.7 87.9328 125.988C88.1888 126.265 88.3701 126.601 88.4768 126.996C88.5834 127.38 88.6368 127.807 88.6368 128.276V133.476C88.5088 133.497 88.3274 133.529 88.0928 133.572C87.8688 133.604 87.6128 133.636 87.3248 133.668C87.0368 133.7 86.7221 133.727 86.3808 133.748C86.0501 133.78 85.7194 133.796 85.3888 133.796C84.9194 133.796 84.4874 133.748 84.0928 133.652C83.6981 133.556 83.3568 133.407 83.0688 133.204C82.7808 132.991 82.5568 132.713 82.3968 132.372C82.2368 132.031 82.1568 131.62 82.1568 131.14C82.1568 130.681 82.2474 130.287 82.4288 129.956C82.6208 129.625 82.8768 129.359 83.1968 129.156C83.5168 128.953 83.8901 128.804 84.3168 128.708C84.7434 128.612 85.1914 128.564 85.6608 128.564C85.8101 128.564 85.9648 128.575 86.1248 128.596C86.2848 128.607 86.4341 128.628 86.5728 128.66C86.7221 128.681 86.8501 128.703 86.9568 128.724C87.0634 128.745 87.1381 128.761 87.1808 128.772V128.356C87.1808 128.111 87.1541 127.871 87.1008 127.636C87.0474 127.391 86.9514 127.177 86.8128 126.996C86.6741 126.804 86.4821 126.655 86.2368 126.548C86.0021 126.431 85.6928 126.372 85.3088 126.372C84.8181 126.372 84.3861 126.409 84.0128 126.484C83.6501 126.548 83.3781 126.617 83.1968 126.692L83.0208 125.46C83.2128 125.375 83.5328 125.295 83.9808 125.22C84.4288 125.135 84.9141 125.092 85.4368 125.092ZM94.1481 129.092C94.4788 129.327 94.8361 129.625 95.2201 129.988C95.6041 130.34 95.9775 130.724 96.3401 131.14C96.7135 131.556 97.0601 131.983 97.3801 132.42C97.7001 132.847 97.9721 133.247 98.1961 133.62H96.4361C96.2015 133.257 95.9241 132.889 95.6041 132.516C95.2948 132.132 94.9695 131.764 94.6281 131.412C94.2868 131.06 93.9401 130.735 93.5881 130.436C93.2361 130.137 92.9055 129.887 92.5961 129.684V133.62H91.1081V125.3H92.5961V128.868C92.8521 128.623 93.1455 128.34 93.4761 128.02C93.8068 127.689 94.1375 127.359 94.4681 127.028C94.8095 126.687 95.1241 126.367 95.4121 126.068C95.7001 125.759 95.9348 125.503 96.1161 125.3H97.8441C97.6095 125.556 97.3321 125.849 97.0121 126.18C96.7028 126.5 96.3775 126.831 96.0361 127.172C95.7055 127.513 95.3748 127.855 95.0441 128.196C94.7135 128.527 94.4148 128.825 94.1481 129.092ZM106.577 129.46C106.577 130.121 106.481 130.719 106.289 131.252C106.097 131.785 105.825 132.244 105.473 132.628C105.132 133.012 104.721 133.311 104.241 133.524C103.761 133.727 103.238 133.828 102.673 133.828C102.108 133.828 101.585 133.727 101.105 133.524C100.625 133.311 100.209 133.012 99.8571 132.628C99.5158 132.244 99.2491 131.785 99.0571 131.252C98.8651 130.719 98.7691 130.121 98.7691 129.46C98.7691 128.809 98.8651 128.217 99.0571 127.684C99.2491 127.14 99.5158 126.676 99.8571 126.292C100.209 125.908 100.625 125.615 101.105 125.412C101.585 125.199 102.108 125.092 102.673 125.092C103.238 125.092 103.761 125.199 104.241 125.412C104.721 125.615 105.132 125.908 105.473 126.292C105.825 126.676 106.097 127.14 106.289 127.684C106.481 128.217 106.577 128.809 106.577 129.46ZM105.025 129.46C105.025 128.521 104.812 127.78 104.385 127.236C103.969 126.681 103.398 126.404 102.673 126.404C101.948 126.404 101.372 126.681 100.945 127.236C100.529 127.78 100.321 128.521 100.321 129.46C100.321 130.399 100.529 131.145 100.945 131.7C101.372 132.244 101.948 132.516 102.673 132.516C103.398 132.516 103.969 132.244 104.385 131.7C104.812 131.145 105.025 130.399 105.025 129.46ZM110.255 127.492C110.148 128.548 110.068 129.604 110.015 130.66C109.961 131.705 109.919 132.692 109.887 133.62H108.463C108.484 132.969 108.516 132.292 108.559 131.588C108.601 130.873 108.649 130.159 108.703 129.444C108.756 128.719 108.815 128.009 108.879 127.316C108.943 126.612 109.012 125.94 109.087 125.3H110.447C110.788 125.855 111.188 126.617 111.647 127.588C112.105 128.548 112.633 129.657 113.231 130.916C113.828 129.657 114.356 128.548 114.815 127.588C115.273 126.617 115.673 125.855 116.015 125.3H117.391C117.465 125.94 117.535 126.612 117.599 127.316C117.663 128.009 117.721 128.719 117.775 129.444C117.828 130.159 117.876 130.873 117.919 131.588C117.961 132.292 117.993 132.969 118.015 133.62H116.543C116.511 132.692 116.468 131.705 116.415 130.66C116.361 129.604 116.281 128.548 116.175 127.492C116.004 127.823 115.807 128.223 115.583 128.692C115.359 129.151 115.135 129.62 114.911 130.1C114.697 130.58 114.495 131.039 114.303 131.476C114.111 131.913 113.961 132.26 113.855 132.516H112.607C112.489 132.249 112.329 131.897 112.127 131.46C111.935 131.023 111.727 130.564 111.503 130.084C111.289 129.593 111.071 129.119 110.847 128.66C110.623 128.191 110.425 127.801 110.255 127.492ZM123.27 126.548C123.27 126.9 123.259 127.279 123.238 127.684C123.227 128.079 123.2 128.479 123.158 128.884C123.115 129.279 123.056 129.673 122.982 130.068C122.907 130.452 122.811 130.815 122.694 131.156C122.576 131.497 122.427 131.817 122.246 132.116C122.075 132.415 121.862 132.681 121.606 132.916C121.35 133.14 121.051 133.332 120.71 133.492C120.368 133.641 119.968 133.737 119.51 133.78L119.302 132.532C119.824 132.425 120.235 132.228 120.534 131.94C120.843 131.652 121.088 131.3 121.27 130.884C121.43 130.521 121.547 130.111 121.622 129.652C121.696 129.193 121.75 128.719 121.782 128.228C121.814 127.727 121.83 127.225 121.83 126.724C121.84 126.223 121.846 125.748 121.846 125.3H127.382V133.62H125.894V126.548H123.27ZM129.472 129.476C129.472 128.74 129.579 128.1 129.792 127.556C130.006 127.001 130.288 126.543 130.64 126.18C130.992 125.817 131.398 125.545 131.856 125.364C132.315 125.183 132.784 125.092 133.264 125.092C134.384 125.092 135.243 125.444 135.84 126.148C136.438 126.841 136.736 127.903 136.736 129.332C136.736 129.396 136.736 129.481 136.736 129.588C136.736 129.684 136.731 129.775 136.72 129.86H131.024C131.088 130.724 131.339 131.38 131.776 131.828C132.214 132.276 132.896 132.5 133.824 132.5C134.347 132.5 134.784 132.457 135.136 132.372C135.499 132.276 135.771 132.185 135.952 132.1L136.16 133.348C135.979 133.444 135.659 133.545 135.2 133.652C134.752 133.759 134.24 133.812 133.664 133.812C132.939 133.812 132.31 133.705 131.776 133.492C131.254 133.268 130.822 132.964 130.48 132.58C130.139 132.196 129.883 131.743 129.712 131.22C129.552 130.687 129.472 130.105 129.472 129.476ZM135.184 128.66C135.195 127.988 135.024 127.439 134.672 127.012C134.331 126.575 133.856 126.356 133.248 126.356C132.907 126.356 132.603 126.425 132.336 126.564C132.08 126.692 131.862 126.863 131.68 127.076C131.499 127.289 131.355 127.535 131.248 127.812C131.152 128.089 131.088 128.372 131.056 128.66H135.184ZM145.69 133.62H144.202V129.94H140.362V133.62H138.874V125.3H140.362V128.692H144.202V125.3H145.69V133.62ZM155.241 125.3V133.62H153.801V127.284C153.481 127.689 153.129 128.164 152.745 128.708C152.361 129.252 151.977 129.817 151.593 130.404C151.209 130.98 150.841 131.551 150.489 132.116C150.137 132.681 149.833 133.183 149.577 133.62H148.249V125.3H149.689V131.284C149.966 130.825 150.281 130.324 150.633 129.78C150.985 129.225 151.347 128.681 151.721 128.148C152.105 127.604 152.483 127.087 152.857 126.596C153.241 126.095 153.598 125.663 153.929 125.3H155.241ZM157.332 129.476C157.332 128.74 157.438 128.1 157.652 127.556C157.865 127.001 158.148 126.543 158.5 126.18C158.852 125.817 159.257 125.545 159.716 125.364C160.174 125.183 160.644 125.092 161.124 125.092C162.244 125.092 163.102 125.444 163.7 126.148C164.297 126.841 164.596 127.903 164.596 129.332C164.596 129.396 164.596 129.481 164.596 129.588C164.596 129.684 164.59 129.775 164.58 129.86H158.884C158.948 130.724 159.198 131.38 159.636 131.828C160.073 132.276 160.756 132.5 161.684 132.5C162.206 132.5 162.644 132.457 162.996 132.372C163.358 132.276 163.63 132.185 163.812 132.1L164.02 133.348C163.838 133.444 163.518 133.545 163.06 133.652C162.612 133.759 162.1 133.812 161.524 133.812C160.798 133.812 160.169 133.705 159.636 133.492C159.113 133.268 158.681 132.964 158.34 132.58C157.998 132.196 157.742 131.743 157.572 131.22C157.412 130.687 157.332 130.105 157.332 129.476ZM163.044 128.66C163.054 127.988 162.884 127.439 162.532 127.012C162.19 126.575 161.716 126.356 161.108 126.356C160.766 126.356 160.462 126.425 160.196 126.564C159.94 126.692 159.721 126.863 159.54 127.076C159.358 127.289 159.214 127.535 159.108 127.812C159.012 128.089 158.948 128.372 158.916 128.66H163.044ZM174.052 133.812C173.38 133.812 172.788 133.705 172.276 133.492C171.775 133.279 171.348 132.98 170.996 132.596C170.655 132.212 170.399 131.759 170.228 131.236C170.058 130.703 169.972 130.116 169.972 129.476C169.972 128.836 170.063 128.249 170.244 127.716C170.436 127.183 170.703 126.724 171.044 126.34C171.386 125.945 171.802 125.641 172.292 125.428C172.794 125.204 173.348 125.092 173.956 125.092C174.33 125.092 174.703 125.124 175.076 125.188C175.45 125.252 175.807 125.353 176.148 125.492L175.812 126.756C175.588 126.649 175.327 126.564 175.028 126.5C174.74 126.436 174.431 126.404 174.1 126.404C173.268 126.404 172.628 126.665 172.18 127.188C171.743 127.711 171.524 128.473 171.524 129.476C171.524 129.924 171.572 130.335 171.668 130.708C171.775 131.081 171.935 131.401 172.148 131.668C172.372 131.935 172.655 132.143 172.996 132.292C173.338 132.431 173.754 132.5 174.244 132.5C174.639 132.5 174.996 132.463 175.316 132.388C175.636 132.313 175.887 132.233 176.068 132.148L176.276 133.396C176.191 133.449 176.068 133.503 175.908 133.556C175.748 133.599 175.567 133.636 175.364 133.668C175.162 133.711 174.943 133.743 174.708 133.764C174.484 133.796 174.266 133.812 174.052 133.812ZM187.449 125.3V126.548H184.745V133.62H183.257V126.548H180.553V125.3H187.449ZM194.759 129.476C194.759 128.505 194.519 127.759 194.039 127.236C193.559 126.713 192.919 126.452 192.119 126.452C191.671 126.452 191.319 126.468 191.063 126.5C190.818 126.532 190.62 126.569 190.471 126.612V131.86C190.652 132.009 190.914 132.153 191.255 132.292C191.596 132.431 191.97 132.5 192.375 132.5C192.802 132.5 193.164 132.425 193.463 132.276C193.772 132.116 194.023 131.903 194.215 131.636C194.407 131.359 194.546 131.039 194.631 130.676C194.716 130.303 194.759 129.903 194.759 129.476ZM196.311 129.476C196.311 130.105 196.226 130.687 196.055 131.22C195.895 131.753 195.655 132.212 195.335 132.596C195.015 132.98 194.62 133.279 194.151 133.492C193.692 133.705 193.164 133.812 192.567 133.812C192.087 133.812 191.66 133.748 191.287 133.62C190.924 133.492 190.652 133.369 190.471 133.252V136.58H188.983V125.556C189.335 125.471 189.772 125.38 190.295 125.284C190.828 125.177 191.442 125.124 192.135 125.124C192.775 125.124 193.351 125.225 193.863 125.428C194.375 125.631 194.812 125.919 195.175 126.292C195.538 126.665 195.815 127.124 196.007 127.668C196.21 128.201 196.311 128.804 196.311 129.476ZM197.941 129.476C197.941 128.74 198.048 128.1 198.261 127.556C198.474 127.001 198.757 126.543 199.109 126.18C199.461 125.817 199.866 125.545 200.325 125.364C200.784 125.183 201.253 125.092 201.733 125.092C202.853 125.092 203.712 125.444 204.309 126.148C204.906 126.841 205.205 127.903 205.205 129.332C205.205 129.396 205.205 129.481 205.205 129.588C205.205 129.684 205.2 129.775 205.189 129.86H199.493C199.557 130.724 199.808 131.38 200.245 131.828C200.682 132.276 201.365 132.5 202.293 132.5C202.816 132.5 203.253 132.457 203.605 132.372C203.968 132.276 204.24 132.185 204.421 132.1L204.629 133.348C204.448 133.444 204.128 133.545 203.669 133.652C203.221 133.759 202.709 133.812 202.133 133.812C201.408 133.812 200.778 133.705 200.245 133.492C199.722 133.268 199.29 132.964 198.949 132.58C198.608 132.196 198.352 131.743 198.181 131.22C198.021 130.687 197.941 130.105 197.941 129.476ZM203.653 128.66C203.664 127.988 203.493 127.439 203.141 127.012C202.8 126.575 202.325 126.356 201.717 126.356C201.376 126.356 201.072 126.425 200.805 126.564C200.549 126.692 200.33 126.863 200.149 127.076C199.968 127.289 199.824 127.535 199.717 127.812C199.621 128.089 199.557 128.372 199.525 128.66H203.653ZM214.335 125.3V133.62H212.895V127.284C212.575 127.689 212.223 128.164 211.839 128.708C211.455 129.252 211.071 129.817 210.687 130.404C210.303 130.98 209.935 131.551 209.583 132.116C209.231 132.681 208.927 133.183 208.671 133.62H207.343V125.3H208.783V131.284C209.06 130.825 209.375 130.324 209.727 129.78C210.079 129.225 210.441 128.681 210.815 128.148C211.199 127.604 211.577 127.087 211.951 126.596C212.335 126.095 212.692 125.663 213.023 125.3H214.335ZM210.847 123.956C210.175 123.956 209.625 123.785 209.199 123.444C208.783 123.103 208.532 122.628 208.447 122.02L209.583 121.716C209.668 122.057 209.812 122.335 210.015 122.548C210.217 122.761 210.495 122.868 210.847 122.868C211.199 122.868 211.476 122.761 211.679 122.548C211.881 122.335 212.025 122.057 212.111 121.716L213.231 122.02C213.145 122.628 212.895 123.103 212.479 123.444C212.063 123.785 211.519 123.956 210.847 123.956ZM215.865 132.404H216.761C217.113 131.892 217.391 131.364 217.593 130.82C217.807 130.276 217.967 129.716 218.073 129.14C218.18 128.553 218.249 127.945 218.281 127.316C218.313 126.676 218.335 126.004 218.345 125.3H223.801V132.404H224.921V135.94H223.513V133.62H217.273V135.94H215.865V132.404ZM222.313 132.404V126.548H219.705C219.695 127.049 219.668 127.556 219.625 128.068C219.583 128.569 219.513 129.071 219.417 129.572C219.321 130.063 219.183 130.548 219.001 131.028C218.831 131.497 218.612 131.956 218.345 132.404H222.313ZM233.522 125.3V133.62H232.082V127.284C231.762 127.689 231.41 128.164 231.026 128.708C230.642 129.252 230.258 129.817 229.874 130.404C229.49 130.98 229.122 131.551 228.77 132.116C228.418 132.681 228.114 133.183 227.858 133.62H226.53V125.3H227.97V131.284C228.247 130.825 228.562 130.324 228.914 129.78C229.266 129.225 229.629 128.681 230.002 128.148C230.386 127.604 230.765 127.087 231.138 126.596C231.522 126.095 231.879 125.663 232.21 125.3H233.522ZM242.893 133.62H241.405V129.94H237.565V133.62H236.077V125.3H237.565V128.692H241.405V125.3H242.893V133.62ZM250.604 126.548H246.94V133.62H245.452V125.3H250.604V126.548ZM259.483 129.46C259.483 130.121 259.387 130.719 259.195 131.252C259.003 131.785 258.731 132.244 258.379 132.628C258.038 133.012 257.627 133.311 257.147 133.524C256.667 133.727 256.145 133.828 255.579 133.828C255.014 133.828 254.491 133.727 254.011 133.524C253.531 133.311 253.115 133.012 252.763 132.628C252.422 132.244 252.155 131.785 251.963 131.252C251.771 130.719 251.675 130.121 251.675 129.46C251.675 128.809 251.771 128.217 251.963 127.684C252.155 127.14 252.422 126.676 252.763 126.292C253.115 125.908 253.531 125.615 254.011 125.412C254.491 125.199 255.014 125.092 255.579 125.092C256.145 125.092 256.667 125.199 257.147 125.412C257.627 125.615 258.038 125.908 258.379 126.292C258.731 126.676 259.003 127.14 259.195 127.684C259.387 128.217 259.483 128.809 259.483 129.46ZM257.931 129.46C257.931 128.521 257.718 127.78 257.291 127.236C256.875 126.681 256.305 126.404 255.579 126.404C254.854 126.404 254.278 126.681 253.851 127.236C253.435 127.78 253.227 128.521 253.227 129.46C253.227 130.399 253.435 131.145 253.851 131.7C254.278 132.244 254.854 132.516 255.579 132.516C256.305 132.516 256.875 132.244 257.291 131.7C257.718 131.145 257.931 130.399 257.931 129.46ZM263.161 127.492C263.054 128.548 262.974 129.604 262.921 130.66C262.868 131.705 262.825 132.692 262.793 133.62H261.369C261.39 132.969 261.422 132.292 261.465 131.588C261.508 130.873 261.556 130.159 261.609 129.444C261.662 128.719 261.721 128.009 261.785 127.316C261.849 126.612 261.918 125.94 261.993 125.3H263.353C263.694 125.855 264.094 126.617 264.553 127.588C265.012 128.548 265.54 129.657 266.137 130.916C266.734 129.657 267.262 128.548 267.721 127.588C268.18 126.617 268.58 125.855 268.921 125.3H270.297C270.372 125.94 270.441 126.612 270.505 127.316C270.569 128.009 270.628 128.719 270.681 129.444C270.734 130.159 270.782 130.873 270.825 131.588C270.868 132.292 270.9 132.969 270.921 133.62H269.449C269.417 132.692 269.374 131.705 269.321 130.66C269.268 129.604 269.188 128.548 269.081 127.492C268.91 127.823 268.713 128.223 268.489 128.692C268.265 129.151 268.041 129.62 267.817 130.1C267.604 130.58 267.401 131.039 267.209 131.476C267.017 131.913 266.868 132.26 266.761 132.516H265.513C265.396 132.249 265.236 131.897 265.033 131.46C264.841 131.023 264.633 130.564 264.409 130.084C264.196 129.593 263.977 129.119 263.753 128.66C263.529 128.191 263.332 127.801 263.161 127.492ZM93.8558 150.196H96.8798V146.9H98.1598V150.196H101.184V151.46H98.1598V154.772H96.8798V151.46H93.8558V150.196ZM108.366 148.26C108.697 147.993 109.081 147.791 109.518 147.652C109.966 147.503 110.393 147.428 110.798 147.428C111.993 147.428 112.894 147.796 113.502 148.532C114.121 149.257 114.43 150.271 114.43 151.572C114.43 152.127 114.356 152.66 114.206 153.172C114.057 153.684 113.822 154.137 113.502 154.532C113.193 154.927 112.798 155.241 112.318 155.476C111.838 155.711 111.268 155.828 110.606 155.828C109.849 155.828 109.22 155.689 108.718 155.412C108.217 155.135 107.817 154.756 107.518 154.276C107.23 153.796 107.028 153.236 106.91 152.596C106.793 151.956 106.734 151.279 106.734 150.564C106.734 149.636 106.798 148.772 106.926 147.972C107.065 147.172 107.31 146.468 107.662 145.86C108.014 145.252 108.5 144.751 109.118 144.356C109.748 143.951 110.553 143.679 111.534 143.54C111.822 143.497 112.073 143.465 112.286 143.444C112.51 143.412 112.702 143.385 112.862 143.364C113.033 143.343 113.188 143.321 113.326 143.3C113.465 143.268 113.609 143.236 113.758 143.204L113.918 144.548C113.844 144.569 113.764 144.585 113.678 144.596C113.604 144.607 113.492 144.623 113.342 144.644C113.204 144.665 113.012 144.692 112.766 144.724C112.532 144.756 112.222 144.793 111.838 144.836C110.782 144.953 109.972 145.273 109.406 145.796C108.841 146.319 108.494 147.14 108.366 148.26ZM108.27 150.804C108.27 151.305 108.302 151.78 108.366 152.228C108.441 152.676 108.564 153.071 108.734 153.412C108.916 153.753 109.156 154.025 109.454 154.228C109.753 154.42 110.137 154.516 110.606 154.516C111.012 154.516 111.358 154.441 111.646 154.292C111.934 154.132 112.169 153.919 112.35 153.652C112.532 153.385 112.665 153.076 112.75 152.724C112.836 152.361 112.878 151.977 112.878 151.572C112.878 151.209 112.841 150.857 112.766 150.516C112.702 150.175 112.58 149.871 112.398 149.604C112.217 149.337 111.972 149.124 111.662 148.964C111.364 148.804 110.985 148.724 110.526 148.724C110.078 148.724 109.646 148.82 109.23 149.012C108.825 149.204 108.51 149.439 108.286 149.716C108.276 149.833 108.27 149.999 108.27 150.212C108.27 150.425 108.27 150.623 108.27 150.804ZM119.354 154.548C119.706 154.548 120.015 154.543 120.282 154.532C120.559 154.511 120.788 154.479 120.97 154.436V151.956C120.863 151.903 120.687 151.86 120.442 151.828C120.207 151.785 119.919 151.764 119.578 151.764C119.354 151.764 119.114 151.78 118.858 151.812C118.612 151.844 118.383 151.913 118.17 152.02C117.967 152.116 117.796 152.255 117.658 152.436C117.519 152.607 117.45 152.836 117.45 153.124C117.45 153.657 117.62 154.031 117.962 154.244C118.303 154.447 118.767 154.548 119.354 154.548ZM119.226 147.092C119.823 147.092 120.324 147.172 120.73 147.332C121.146 147.481 121.476 147.7 121.722 147.988C121.978 148.265 122.159 148.601 122.266 148.996C122.372 149.38 122.426 149.807 122.426 150.276V155.476C122.298 155.497 122.116 155.529 121.882 155.572C121.658 155.604 121.402 155.636 121.114 155.668C120.826 155.7 120.511 155.727 120.17 155.748C119.839 155.78 119.508 155.796 119.178 155.796C118.708 155.796 118.276 155.748 117.882 155.652C117.487 155.556 117.146 155.407 116.858 155.204C116.57 154.991 116.346 154.713 116.186 154.372C116.026 154.031 115.946 153.62 115.946 153.14C115.946 152.681 116.036 152.287 116.218 151.956C116.41 151.625 116.666 151.359 116.986 151.156C117.306 150.953 117.679 150.804 118.106 150.708C118.532 150.612 118.98 150.564 119.45 150.564C119.599 150.564 119.754 150.575 119.914 150.596C120.074 150.607 120.223 150.628 120.362 150.66C120.511 150.681 120.639 150.703 120.746 150.724C120.852 150.745 120.927 150.761 120.97 150.772V150.356C120.97 150.111 120.943 149.871 120.89 149.636C120.836 149.391 120.74 149.177 120.602 148.996C120.463 148.804 120.271 148.655 120.026 148.548C119.791 148.431 119.482 148.372 119.098 148.372C118.607 148.372 118.175 148.409 117.802 148.484C117.439 148.548 117.167 148.617 116.986 148.692L116.81 147.46C117.002 147.375 117.322 147.295 117.77 147.22C118.218 147.135 118.703 147.092 119.226 147.092ZM127.009 147.092C127.489 147.092 127.937 147.14 128.353 147.236C128.769 147.332 129.127 147.476 129.425 147.668C129.724 147.86 129.959 148.1 130.129 148.388C130.3 148.676 130.385 149.012 130.385 149.396C130.385 149.641 130.343 149.865 130.257 150.068C130.172 150.271 130.065 150.452 129.937 150.612C129.809 150.772 129.665 150.911 129.505 151.028C129.356 151.135 129.212 151.209 129.073 151.252C129.564 151.401 129.948 151.668 130.225 152.052C130.513 152.425 130.657 152.9 130.657 153.476C130.657 154.265 130.337 154.852 129.697 155.236C129.057 155.62 128.188 155.812 127.089 155.812C126.417 155.812 125.836 155.759 125.345 155.652C124.865 155.545 124.524 155.444 124.321 155.348L124.577 154.084C124.748 154.148 125.052 154.239 125.489 154.356C125.937 154.463 126.471 154.516 127.089 154.516C127.761 154.516 128.273 154.415 128.625 154.212C128.977 153.999 129.153 153.684 129.153 153.268C129.153 152.969 129.084 152.729 128.945 152.548C128.817 152.356 128.652 152.212 128.449 152.116C128.247 152.02 128.028 151.956 127.793 151.924C127.559 151.892 127.34 151.876 127.137 151.876H125.745V150.692H127.089C127.281 150.692 127.479 150.681 127.681 150.66C127.895 150.628 128.087 150.569 128.257 150.484C128.439 150.399 128.588 150.281 128.705 150.132C128.823 149.972 128.881 149.764 128.881 149.508C128.881 149.305 128.828 149.135 128.721 148.996C128.625 148.847 128.492 148.724 128.321 148.628C128.151 148.532 127.948 148.463 127.713 148.42C127.489 148.367 127.255 148.34 127.009 148.34C126.817 148.34 126.609 148.356 126.385 148.388C126.161 148.42 125.943 148.463 125.729 148.516C125.516 148.559 125.324 148.607 125.153 148.66C124.983 148.713 124.86 148.761 124.785 148.804L124.513 147.524C124.599 147.492 124.732 147.449 124.913 147.396C125.095 147.343 125.297 147.295 125.521 147.252C125.756 147.209 126.001 147.172 126.257 147.14C126.513 147.108 126.764 147.092 127.009 147.092ZM140.069 151.46C140.069 152.121 139.973 152.719 139.781 153.252C139.589 153.785 139.317 154.244 138.965 154.628C138.624 155.012 138.213 155.311 137.733 155.524C137.253 155.727 136.731 155.828 136.165 155.828C135.6 155.828 135.077 155.727 134.597 155.524C134.117 155.311 133.701 155.012 133.349 154.628C133.008 154.244 132.741 153.785 132.549 153.252C132.357 152.719 132.261 152.121 132.261 151.46C132.261 150.809 132.357 150.217 132.549 149.684C132.741 149.14 133.008 148.676 133.349 148.292C133.701 147.908 134.117 147.615 134.597 147.412C135.077 147.199 135.6 147.092 136.165 147.092C136.731 147.092 137.253 147.199 137.733 147.412C138.213 147.615 138.624 147.908 138.965 148.292C139.317 148.676 139.589 149.14 139.781 149.684C139.973 150.217 140.069 150.809 140.069 151.46ZM138.517 151.46C138.517 150.521 138.304 149.78 137.877 149.236C137.461 148.681 136.891 148.404 136.165 148.404C135.44 148.404 134.864 148.681 134.437 149.236C134.021 149.78 133.813 150.521 133.813 151.46C133.813 152.399 134.021 153.145 134.437 153.7C134.864 154.244 135.44 154.516 136.165 154.516C136.891 154.516 137.461 154.244 137.877 153.7C138.304 153.145 138.517 152.399 138.517 151.46ZM143.619 154.5C143.683 154.511 143.773 154.521 143.891 154.532C144.008 154.543 144.141 154.553 144.291 154.564C144.44 154.564 144.595 154.569 144.755 154.58C144.925 154.58 145.085 154.58 145.235 154.58C145.544 154.58 145.837 154.559 146.115 154.516C146.403 154.473 146.648 154.399 146.851 154.292C147.064 154.185 147.229 154.047 147.347 153.876C147.475 153.695 147.539 153.465 147.539 153.188C147.539 152.921 147.48 152.703 147.363 152.532C147.256 152.351 147.107 152.207 146.915 152.1C146.723 151.993 146.493 151.919 146.227 151.876C145.971 151.833 145.693 151.812 145.395 151.812H143.619V154.5ZM145.203 150.708C145.491 150.708 145.752 150.692 145.987 150.66C146.232 150.617 146.44 150.548 146.611 150.452C146.792 150.356 146.931 150.228 147.027 150.068C147.133 149.908 147.187 149.705 147.187 149.46C147.187 149.204 147.123 149.001 146.995 148.852C146.867 148.703 146.696 148.591 146.483 148.516C146.28 148.431 146.045 148.377 145.779 148.356C145.523 148.324 145.261 148.308 144.995 148.308C144.749 148.308 144.499 148.313 144.243 148.324C143.997 148.335 143.789 148.345 143.619 148.356V150.708H145.203ZM145.171 155.764C144.541 155.764 143.96 155.732 143.427 155.668C142.893 155.615 142.472 155.551 142.163 155.476V147.38C142.472 147.305 142.893 147.241 143.427 147.188C143.96 147.124 144.541 147.092 145.171 147.092C145.608 147.092 146.035 147.129 146.451 147.204C146.867 147.279 147.235 147.407 147.555 147.588C147.875 147.759 148.131 147.999 148.323 148.308C148.525 148.607 148.627 148.98 148.627 149.428C148.627 149.833 148.525 150.18 148.323 150.468C148.12 150.756 147.848 150.98 147.507 151.14C147.965 151.3 148.328 151.54 148.595 151.86C148.872 152.169 149.011 152.607 149.011 153.172C149.011 153.673 148.909 154.089 148.707 154.42C148.515 154.751 148.243 155.017 147.891 155.22C147.549 155.423 147.144 155.561 146.675 155.636C146.205 155.721 145.704 155.764 145.171 155.764ZM153.984 151.508C153.696 151.508 153.414 151.519 153.136 151.54C152.87 151.551 152.63 151.583 152.416 151.636V154.5C152.48 154.511 152.571 154.521 152.688 154.532C152.816 154.543 152.95 154.553 153.088 154.564C153.238 154.564 153.387 154.569 153.536 154.58C153.686 154.58 153.819 154.58 153.936 154.58C154.587 154.58 155.088 154.457 155.44 154.212C155.792 153.967 155.968 153.572 155.968 153.028C155.968 152.761 155.91 152.532 155.792 152.34C155.686 152.148 155.536 151.993 155.344 151.876C155.163 151.748 154.955 151.657 154.72 151.604C154.486 151.54 154.24 151.508 153.984 151.508ZM150.928 147.3H152.416V150.484C152.598 150.441 152.859 150.399 153.2 150.356C153.552 150.313 153.888 150.292 154.208 150.292C154.646 150.292 155.062 150.345 155.456 150.452C155.851 150.548 156.198 150.708 156.496 150.932C156.795 151.145 157.03 151.428 157.2 151.78C157.382 152.121 157.472 152.532 157.472 153.012C157.472 153.513 157.387 153.94 157.216 154.292C157.046 154.644 156.806 154.932 156.496 155.156C156.187 155.38 155.814 155.54 155.376 155.636C154.939 155.743 154.459 155.796 153.936 155.796C153.435 155.796 152.928 155.764 152.416 155.7C151.904 155.647 151.408 155.561 150.928 155.444V147.3ZM160.496 155.62H159.008V147.3H160.496V155.62ZM162.589 151.476C162.589 150.74 162.696 150.1 162.909 149.556C163.123 149.001 163.405 148.543 163.757 148.18C164.109 147.817 164.515 147.545 164.973 147.364C165.432 147.183 165.901 147.092 166.381 147.092C167.501 147.092 168.36 147.444 168.957 148.148C169.555 148.841 169.853 149.903 169.853 151.332C169.853 151.396 169.853 151.481 169.853 151.588C169.853 151.684 169.848 151.775 169.837 151.86H164.141C164.205 152.724 164.456 153.38 164.893 153.828C165.331 154.276 166.013 154.5 166.941 154.5C167.464 154.5 167.901 154.457 168.253 154.372C168.616 154.276 168.888 154.185 169.069 154.1L169.277 155.348C169.096 155.444 168.776 155.545 168.317 155.652C167.869 155.759 167.357 155.812 166.781 155.812C166.056 155.812 165.427 155.705 164.893 155.492C164.371 155.268 163.939 154.964 163.597 154.58C163.256 154.196 163 153.743 162.829 153.22C162.669 152.687 162.589 152.105 162.589 151.476ZM168.301 150.66C168.312 149.988 168.141 149.439 167.789 149.012C167.448 148.575 166.973 148.356 166.365 148.356C166.024 148.356 165.72 148.425 165.453 148.564C165.197 148.692 164.979 148.863 164.797 149.076C164.616 149.289 164.472 149.535 164.365 149.812C164.269 150.089 164.205 150.372 164.173 150.66H168.301ZM183.038 151.46C183.038 152.121 182.942 152.719 182.75 153.252C182.558 153.785 182.286 154.244 181.934 154.628C181.593 155.012 181.182 155.311 180.702 155.524C180.222 155.727 179.699 155.828 179.134 155.828C178.569 155.828 178.046 155.727 177.566 155.524C177.086 155.311 176.67 155.012 176.318 154.628C175.977 154.244 175.71 153.785 175.518 153.252C175.326 152.719 175.23 152.121 175.23 151.46C175.23 150.809 175.326 150.217 175.518 149.684C175.71 149.14 175.977 148.676 176.318 148.292C176.67 147.908 177.086 147.615 177.566 147.412C178.046 147.199 178.569 147.092 179.134 147.092C179.699 147.092 180.222 147.199 180.702 147.412C181.182 147.615 181.593 147.908 181.934 148.292C182.286 148.676 182.558 149.14 182.75 149.684C182.942 150.217 183.038 150.809 183.038 151.46ZM181.486 151.46C181.486 150.521 181.273 149.78 180.846 149.236C180.43 148.681 179.859 148.404 179.134 148.404C178.409 148.404 177.833 148.681 177.406 149.236C176.99 149.78 176.782 150.521 176.782 151.46C176.782 152.399 176.99 153.145 177.406 153.7C177.833 154.244 178.409 154.516 179.134 154.516C179.859 154.516 180.43 154.244 180.846 153.7C181.273 153.145 181.486 152.399 181.486 151.46ZM188.748 155.812C188.076 155.812 187.484 155.705 186.972 155.492C186.47 155.279 186.044 154.98 185.692 154.596C185.35 154.212 185.094 153.759 184.924 153.236C184.753 152.703 184.668 152.116 184.668 151.476C184.668 150.836 184.758 150.249 184.94 149.716C185.132 149.183 185.398 148.724 185.74 148.34C186.081 147.945 186.497 147.641 186.988 147.428C187.489 147.204 188.044 147.092 188.652 147.092C189.025 147.092 189.398 147.124 189.772 147.188C190.145 147.252 190.502 147.353 190.844 147.492L190.508 148.756C190.284 148.649 190.022 148.564 189.724 148.5C189.436 148.436 189.126 148.404 188.796 148.404C187.964 148.404 187.324 148.665 186.876 149.188C186.438 149.711 186.22 150.473 186.22 151.476C186.22 151.924 186.268 152.335 186.364 152.708C186.47 153.081 186.63 153.401 186.844 153.668C187.068 153.935 187.35 154.143 187.692 154.292C188.033 154.431 188.449 154.5 188.94 154.5C189.334 154.5 189.692 154.463 190.012 154.388C190.332 154.313 190.582 154.233 190.764 154.148L190.972 155.396C190.886 155.449 190.764 155.503 190.604 155.556C190.444 155.599 190.262 155.636 190.06 155.668C189.857 155.711 189.638 155.743 189.404 155.764C189.18 155.796 188.961 155.812 188.748 155.812ZM199.385 155.62H197.897V151.94H194.057V155.62H192.569V147.3H194.057V150.692H197.897V147.3H199.385V155.62ZM209.288 151.46C209.288 152.121 209.192 152.719 209 153.252C208.808 153.785 208.536 154.244 208.184 154.628C207.843 155.012 207.432 155.311 206.952 155.524C206.472 155.727 205.949 155.828 205.384 155.828C204.819 155.828 204.296 155.727 203.816 155.524C203.336 155.311 202.92 155.012 202.568 154.628C202.227 154.244 201.96 153.785 201.768 153.252C201.576 152.719 201.48 152.121 201.48 151.46C201.48 150.809 201.576 150.217 201.768 149.684C201.96 149.14 202.227 148.676 202.568 148.292C202.92 147.908 203.336 147.615 203.816 147.412C204.296 147.199 204.819 147.092 205.384 147.092C205.949 147.092 206.472 147.199 206.952 147.412C207.432 147.615 207.843 147.908 208.184 148.292C208.536 148.676 208.808 149.14 209 149.684C209.192 150.217 209.288 150.809 209.288 151.46ZM207.736 151.46C207.736 150.521 207.523 149.78 207.096 149.236C206.68 148.681 206.109 148.404 205.384 148.404C204.659 148.404 204.083 148.681 203.656 149.236C203.24 149.78 203.032 150.521 203.032 151.46C203.032 152.399 203.24 153.145 203.656 153.7C204.083 154.244 204.659 154.516 205.384 154.516C206.109 154.516 206.68 154.244 207.096 153.7C207.523 153.145 207.736 152.399 207.736 151.46ZM212.838 154.5C212.902 154.511 212.992 154.521 213.11 154.532C213.227 154.543 213.36 154.553 213.51 154.564C213.659 154.564 213.814 154.569 213.974 154.58C214.144 154.58 214.304 154.58 214.454 154.58C214.763 154.58 215.056 154.559 215.334 154.516C215.622 154.473 215.867 154.399 216.07 154.292C216.283 154.185 216.448 154.047 216.566 153.876C216.694 153.695 216.758 153.465 216.758 153.188C216.758 152.921 216.699 152.703 216.582 152.532C216.475 152.351 216.326 152.207 216.134 152.1C215.942 151.993 215.712 151.919 215.446 151.876C215.19 151.833 214.912 151.812 214.614 151.812H212.838V154.5ZM214.422 150.708C214.71 150.708 214.971 150.692 215.206 150.66C215.451 150.617 215.659 150.548 215.83 150.452C216.011 150.356 216.15 150.228 216.246 150.068C216.352 149.908 216.406 149.705 216.406 149.46C216.406 149.204 216.342 149.001 216.214 148.852C216.086 148.703 215.915 148.591 215.702 148.516C215.499 148.431 215.264 148.377 214.998 148.356C214.742 148.324 214.48 148.308 214.214 148.308C213.968 148.308 213.718 148.313 213.462 148.324C213.216 148.335 213.008 148.345 212.838 148.356V150.708H214.422ZM214.39 155.764C213.76 155.764 213.179 155.732 212.646 155.668C212.112 155.615 211.691 155.551 211.382 155.476V147.38C211.691 147.305 212.112 147.241 212.646 147.188C213.179 147.124 213.76 147.092 214.39 147.092C214.827 147.092 215.254 147.129 215.67 147.204C216.086 147.279 216.454 147.407 216.774 147.588C217.094 147.759 217.35 147.999 217.542 148.308C217.744 148.607 217.846 148.98 217.846 149.428C217.846 149.833 217.744 150.18 217.542 150.468C217.339 150.756 217.067 150.98 216.726 151.14C217.184 151.3 217.547 151.54 217.814 151.86C218.091 152.169 218.23 152.607 218.23 153.172C218.23 153.673 218.128 154.089 217.926 154.42C217.734 154.751 217.462 155.017 217.11 155.22C216.768 155.423 216.363 155.561 215.894 155.636C215.424 155.721 214.923 155.764 214.39 155.764ZM223.203 151.508C222.915 151.508 222.633 151.519 222.355 151.54C222.089 151.551 221.849 151.583 221.635 151.636V154.5C221.699 154.511 221.79 154.521 221.907 154.532C222.035 154.543 222.169 154.553 222.307 154.564C222.457 154.564 222.606 154.569 222.755 154.58C222.905 154.58 223.038 154.58 223.155 154.58C223.806 154.58 224.307 154.457 224.659 154.212C225.011 153.967 225.187 153.572 225.187 153.028C225.187 152.761 225.129 152.532 225.011 152.34C224.905 152.148 224.755 151.993 224.563 151.876C224.382 151.748 224.174 151.657 223.939 151.604C223.705 151.54 223.459 151.508 223.203 151.508ZM220.147 147.3H221.635V150.484C221.817 150.441 222.078 150.399 222.419 150.356C222.771 150.313 223.107 150.292 223.427 150.292C223.865 150.292 224.281 150.345 224.675 150.452C225.07 150.548 225.417 150.708 225.715 150.932C226.014 151.145 226.249 151.428 226.419 151.78C226.601 152.121 226.691 152.532 226.691 153.012C226.691 153.513 226.606 153.94 226.435 154.292C226.265 154.644 226.025 154.932 225.715 155.156C225.406 155.38 225.033 155.54 224.595 155.636C224.158 155.743 223.678 155.796 223.155 155.796C222.654 155.796 222.147 155.764 221.635 155.7C221.123 155.647 220.627 155.561 220.147 155.444V147.3ZM229.715 155.62H228.227V147.3H229.715V155.62ZM74.3942 169.3V170.548H71.6902V177.62H70.2022V170.548H67.4982V169.3H74.3942ZM75.4644 173.476C75.4644 172.74 75.5711 172.1 75.7844 171.556C75.9978 171.001 76.2804 170.543 76.6324 170.18C76.9844 169.817 77.3898 169.545 77.8484 169.364C78.3071 169.183 78.7764 169.092 79.2564 169.092C80.3764 169.092 81.2351 169.444 81.8324 170.148C82.4298 170.841 82.7284 171.903 82.7284 173.332C82.7284 173.396 82.7284 173.481 82.7284 173.588C82.7284 173.684 82.7231 173.775 82.7124 173.86H77.0164C77.0804 174.724 77.3311 175.38 77.7684 175.828C78.2058 176.276 78.8884 176.5 79.8164 176.5C80.3391 176.5 80.7764 176.457 81.1284 176.372C81.4911 176.276 81.7631 176.185 81.9444 176.1L82.1524 177.348C81.9711 177.444 81.6511 177.545 81.1924 177.652C80.7444 177.759 80.2324 177.812 79.6564 177.812C78.9311 177.812 78.3018 177.705 77.7684 177.492C77.2458 177.268 76.8138 176.964 76.4724 176.58C76.1311 176.196 75.8751 175.743 75.7044 175.22C75.5444 174.687 75.4644 174.105 75.4644 173.476ZM81.1764 172.66C81.1871 171.988 81.0164 171.439 80.6644 171.012C80.3231 170.575 79.8484 170.356 79.2404 170.356C78.8991 170.356 78.5951 170.425 78.3284 170.564C78.0724 170.692 77.8538 170.863 77.6724 171.076C77.4911 171.289 77.3471 171.535 77.2404 171.812C77.1444 172.089 77.0804 172.372 77.0484 172.66H81.1764ZM89.8419 177.62C89.7246 177.385 89.5806 177.124 89.4099 176.836C89.2393 176.548 89.0526 176.255 88.8499 175.956C88.6473 175.647 88.4393 175.343 88.2259 175.044C88.0126 174.745 87.8046 174.463 87.6019 174.196C87.3993 174.463 87.1913 174.751 86.9779 175.06C86.7646 175.359 86.5566 175.663 86.3539 175.972C86.1619 176.271 85.9806 176.564 85.8099 176.852C85.6393 177.14 85.4953 177.396 85.3779 177.62H83.8419C84.2153 176.895 84.6579 176.159 85.1699 175.412C85.6926 174.655 86.2099 173.935 86.7219 173.252L83.9699 169.3H85.6499L87.6339 172.212L89.6339 169.3H91.2179L88.5299 173.156C89.0419 173.849 89.5646 174.585 90.0979 175.364C90.6419 176.132 91.1006 176.884 91.4739 177.62H89.8419ZM99.8538 177.62H98.3658V173.94H94.5258V177.62H93.0378V169.3H94.5258V172.692H98.3658V169.3H99.8538V177.62ZM109.405 169.3V177.62H107.965V171.284C107.645 171.689 107.293 172.164 106.909 172.708C106.525 173.252 106.141 173.817 105.757 174.404C105.373 174.98 105.005 175.551 104.653 176.116C104.301 176.681 103.997 177.183 103.741 177.62H102.413V169.3H103.853V175.284C104.13 174.825 104.445 174.324 104.797 173.78C105.149 173.225 105.511 172.681 105.885 172.148C106.269 171.604 106.647 171.087 107.021 170.596C107.405 170.095 107.762 169.663 108.093 169.3H109.405ZM112.904 169.3V171.748C112.904 172.377 113.064 172.82 113.384 173.076C113.704 173.321 114.141 173.444 114.696 173.444C115.101 173.444 115.437 173.423 115.704 173.38C115.981 173.337 116.226 173.289 116.44 173.236V169.3H117.928V177.62H116.44V174.388C116.354 174.409 116.242 174.436 116.104 174.468C115.965 174.5 115.805 174.532 115.624 174.564C115.453 174.585 115.272 174.607 115.08 174.628C114.888 174.649 114.701 174.66 114.52 174.66C114.061 174.66 113.64 174.612 113.256 174.516C112.882 174.42 112.557 174.26 112.28 174.036C112.013 173.812 111.8 173.519 111.64 173.156C111.49 172.783 111.416 172.319 111.416 171.764V169.3H112.904ZM120.027 173.476C120.027 172.74 120.134 172.1 120.347 171.556C120.56 171.001 120.843 170.543 121.195 170.18C121.547 169.817 121.952 169.545 122.411 169.364C122.87 169.183 123.339 169.092 123.819 169.092C124.939 169.092 125.798 169.444 126.395 170.148C126.992 170.841 127.291 171.903 127.291 173.332C127.291 173.396 127.291 173.481 127.291 173.588C127.291 173.684 127.286 173.775 127.275 173.86H121.579C121.643 174.724 121.894 175.38 122.331 175.828C122.768 176.276 123.451 176.5 124.379 176.5C124.902 176.5 125.339 176.457 125.691 176.372C126.054 176.276 126.326 176.185 126.507 176.1L126.715 177.348C126.534 177.444 126.214 177.545 125.755 177.652C125.307 177.759 124.795 177.812 124.219 177.812C123.494 177.812 122.864 177.705 122.331 177.492C121.808 177.268 121.376 176.964 121.035 176.58C120.694 176.196 120.438 175.743 120.267 175.22C120.107 174.687 120.027 174.105 120.027 173.476ZM125.739 172.66C125.75 171.988 125.579 171.439 125.227 171.012C124.886 170.575 124.411 170.356 123.803 170.356C123.462 170.356 123.158 170.425 122.891 170.564C122.635 170.692 122.416 170.863 122.235 171.076C122.054 171.289 121.91 171.535 121.803 171.812C121.707 172.089 121.643 172.372 121.611 172.66H125.739ZM133.044 177.812C132.372 177.812 131.78 177.705 131.268 177.492C130.767 177.279 130.34 176.98 129.988 176.596C129.647 176.212 129.391 175.759 129.22 175.236C129.05 174.703 128.964 174.116 128.964 173.476C128.964 172.836 129.055 172.249 129.236 171.716C129.428 171.183 129.695 170.724 130.036 170.34C130.378 169.945 130.794 169.641 131.284 169.428C131.786 169.204 132.34 169.092 132.948 169.092C133.322 169.092 133.695 169.124 134.068 169.188C134.442 169.252 134.799 169.353 135.14 169.492L134.804 170.756C134.58 170.649 134.319 170.564 134.02 170.5C133.732 170.436 133.423 170.404 133.092 170.404C132.26 170.404 131.62 170.665 131.172 171.188C130.735 171.711 130.516 172.473 130.516 173.476C130.516 173.924 130.564 174.335 130.66 174.708C130.767 175.081 130.927 175.401 131.14 175.668C131.364 175.935 131.647 176.143 131.988 176.292C132.33 176.431 132.746 176.5 133.236 176.5C133.631 176.5 133.988 176.463 134.308 176.388C134.628 176.313 134.879 176.233 135.06 176.148L135.268 177.396C135.183 177.449 135.06 177.503 134.9 177.556C134.74 177.599 134.559 177.636 134.356 177.668C134.154 177.711 133.935 177.743 133.7 177.764C133.476 177.796 133.258 177.812 133.044 177.812ZM139.906 173.092C140.237 173.327 140.594 173.625 140.978 173.988C141.362 174.34 141.735 174.724 142.098 175.14C142.471 175.556 142.818 175.983 143.138 176.42C143.458 176.847 143.73 177.247 143.954 177.62H142.194C141.959 177.257 141.682 176.889 141.362 176.516C141.053 176.132 140.727 175.764 140.386 175.412C140.045 175.06 139.698 174.735 139.346 174.436C138.994 174.137 138.663 173.887 138.354 173.684V177.62H136.866V169.3H138.354V172.868C138.61 172.623 138.903 172.34 139.234 172.02C139.565 171.689 139.895 171.359 140.226 171.028C140.567 170.687 140.882 170.367 141.17 170.068C141.458 169.759 141.693 169.503 141.874 169.3H143.602C143.367 169.556 143.09 169.849 142.77 170.18C142.461 170.5 142.135 170.831 141.794 171.172C141.463 171.513 141.133 171.855 140.802 172.196C140.471 172.527 140.173 172.825 139.906 173.092ZM152.335 173.46C152.335 174.121 152.239 174.719 152.047 175.252C151.855 175.785 151.583 176.244 151.231 176.628C150.89 177.012 150.479 177.311 149.999 177.524C149.519 177.727 148.996 177.828 148.431 177.828C147.866 177.828 147.343 177.727 146.863 177.524C146.383 177.311 145.967 177.012 145.615 176.628C145.274 176.244 145.007 175.785 144.815 175.252C144.623 174.719 144.527 174.121 144.527 173.46C144.527 172.809 144.623 172.217 144.815 171.684C145.007 171.14 145.274 170.676 145.615 170.292C145.967 169.908 146.383 169.615 146.863 169.412C147.343 169.199 147.866 169.092 148.431 169.092C148.996 169.092 149.519 169.199 149.999 169.412C150.479 169.615 150.89 169.908 151.231 170.292C151.583 170.676 151.855 171.14 152.047 171.684C152.239 172.217 152.335 172.809 152.335 173.46ZM150.783 173.46C150.783 172.521 150.57 171.78 150.143 171.236C149.727 170.681 149.156 170.404 148.431 170.404C147.706 170.404 147.13 170.681 146.703 171.236C146.287 171.78 146.079 172.521 146.079 173.46C146.079 174.399 146.287 175.145 146.703 175.7C147.13 176.244 147.706 176.516 148.431 176.516C149.156 176.516 149.727 176.244 150.143 175.7C150.57 175.145 150.783 174.399 150.783 173.46ZM159.58 170.548H155.916V177.62H154.428V169.3H159.58V170.548ZM168.46 173.46C168.46 174.121 168.364 174.719 168.172 175.252C167.98 175.785 167.708 176.244 167.356 176.628C167.015 177.012 166.604 177.311 166.124 177.524C165.644 177.727 165.121 177.828 164.556 177.828C163.991 177.828 163.468 177.727 162.988 177.524C162.508 177.311 162.092 177.012 161.74 176.628C161.399 176.244 161.132 175.785 160.94 175.252C160.748 174.719 160.652 174.121 160.652 173.46C160.652 172.809 160.748 172.217 160.94 171.684C161.132 171.14 161.399 170.676 161.74 170.292C162.092 169.908 162.508 169.615 162.988 169.412C163.468 169.199 163.991 169.092 164.556 169.092C165.121 169.092 165.644 169.199 166.124 169.412C166.604 169.615 167.015 169.908 167.356 170.292C167.708 170.676 167.98 171.14 168.172 171.684C168.364 172.217 168.46 172.809 168.46 173.46ZM166.908 173.46C166.908 172.521 166.695 171.78 166.268 171.236C165.852 170.681 165.281 170.404 164.556 170.404C163.831 170.404 163.255 170.681 162.828 171.236C162.412 171.78 162.204 172.521 162.204 173.46C162.204 174.399 162.412 175.145 162.828 175.7C163.255 176.244 163.831 176.516 164.556 176.516C165.281 176.516 165.852 176.244 166.268 175.7C166.695 175.145 166.908 174.399 166.908 173.46ZM177.073 176.548C177.425 176.548 177.734 176.543 178.001 176.532C178.278 176.511 178.507 176.479 178.689 176.436V173.956C178.582 173.903 178.406 173.86 178.161 173.828C177.926 173.785 177.638 173.764 177.297 173.764C177.073 173.764 176.833 173.78 176.577 173.812C176.331 173.844 176.102 173.913 175.889 174.02C175.686 174.116 175.515 174.255 175.377 174.436C175.238 174.607 175.169 174.836 175.169 175.124C175.169 175.657 175.339 176.031 175.681 176.244C176.022 176.447 176.486 176.548 177.073 176.548ZM176.945 169.092C177.542 169.092 178.043 169.172 178.449 169.332C178.865 169.481 179.195 169.7 179.441 169.988C179.697 170.265 179.878 170.601 179.985 170.996C180.091 171.38 180.145 171.807 180.145 172.276V177.476C180.017 177.497 179.835 177.529 179.601 177.572C179.377 177.604 179.121 177.636 178.833 177.668C178.545 177.7 178.23 177.727 177.889 177.748C177.558 177.78 177.227 177.796 176.897 177.796C176.427 177.796 175.995 177.748 175.601 177.652C175.206 177.556 174.865 177.407 174.577 177.204C174.289 176.991 174.065 176.713 173.905 176.372C173.745 176.031 173.665 175.62 173.665 175.14C173.665 174.681 173.755 174.287 173.937 173.956C174.129 173.625 174.385 173.359 174.705 173.156C175.025 172.953 175.398 172.804 175.825 172.708C176.251 172.612 176.699 172.564 177.169 172.564C177.318 172.564 177.473 172.575 177.633 172.596C177.793 172.607 177.942 172.628 178.081 172.66C178.23 172.681 178.358 172.703 178.465 172.724C178.571 172.745 178.646 172.761 178.689 172.772V172.356C178.689 172.111 178.662 171.871 178.609 171.636C178.555 171.391 178.459 171.177 178.321 170.996C178.182 170.804 177.99 170.655 177.745 170.548C177.51 170.431 177.201 170.372 176.817 170.372C176.326 170.372 175.894 170.409 175.521 170.484C175.158 170.548 174.886 170.617 174.705 170.692L174.529 169.46C174.721 169.375 175.041 169.295 175.489 169.22C175.937 169.135 176.422 169.092 176.945 169.092ZM189.432 177.62H187.944V173.94H184.104V177.62H182.616V169.3H184.104V172.692H187.944V169.3H189.432V177.62ZM194.807 176.548C195.159 176.548 195.468 176.543 195.735 176.532C196.012 176.511 196.242 176.479 196.423 176.436V173.956C196.316 173.903 196.14 173.86 195.895 173.828C195.66 173.785 195.372 173.764 195.031 173.764C194.807 173.764 194.567 173.78 194.311 173.812C194.066 173.844 193.836 173.913 193.623 174.02C193.42 174.116 193.25 174.255 193.111 174.436C192.972 174.607 192.903 174.836 192.903 175.124C192.903 175.657 193.074 176.031 193.415 176.244C193.756 176.447 194.22 176.548 194.807 176.548ZM194.679 169.092C195.276 169.092 195.778 169.172 196.183 169.332C196.599 169.481 196.93 169.7 197.175 169.988C197.431 170.265 197.612 170.601 197.719 170.996C197.826 171.38 197.879 171.807 197.879 172.276V177.476C197.751 177.497 197.57 177.529 197.335 177.572C197.111 177.604 196.855 177.636 196.567 177.668C196.279 177.7 195.964 177.727 195.623 177.748C195.292 177.78 194.962 177.796 194.631 177.796C194.162 177.796 193.73 177.748 193.335 177.652C192.94 177.556 192.599 177.407 192.311 177.204C192.023 176.991 191.799 176.713 191.639 176.372C191.479 176.031 191.399 175.62 191.399 175.14C191.399 174.681 191.49 174.287 191.671 173.956C191.863 173.625 192.119 173.359 192.439 173.156C192.759 172.953 193.132 172.804 193.559 172.708C193.986 172.612 194.434 172.564 194.903 172.564C195.052 172.564 195.207 172.575 195.367 172.596C195.527 172.607 195.676 172.628 195.815 172.66C195.964 172.681 196.092 172.703 196.199 172.724C196.306 172.745 196.38 172.761 196.423 172.772V172.356C196.423 172.111 196.396 171.871 196.343 171.636C196.29 171.391 196.194 171.177 196.055 170.996C195.916 170.804 195.724 170.655 195.479 170.548C195.244 170.431 194.935 170.372 194.551 170.372C194.06 170.372 193.628 170.409 193.255 170.484C192.892 170.548 192.62 170.617 192.439 170.692L192.263 169.46C192.455 169.375 192.775 169.295 193.223 169.22C193.671 169.135 194.156 169.092 194.679 169.092ZM203.246 170.548C203.246 170.9 203.236 171.279 203.214 171.684C203.204 172.079 203.177 172.479 203.134 172.884C203.092 173.279 203.033 173.673 202.958 174.068C202.884 174.452 202.788 174.815 202.67 175.156C202.553 175.497 202.404 175.817 202.222 176.116C202.052 176.415 201.838 176.681 201.582 176.916C201.326 177.14 201.028 177.332 200.686 177.492C200.345 177.641 199.945 177.737 199.486 177.78L199.278 176.532C199.801 176.425 200.212 176.228 200.51 175.94C200.82 175.652 201.065 175.3 201.246 174.884C201.406 174.521 201.524 174.111 201.598 173.652C201.673 173.193 201.726 172.719 201.758 172.228C201.79 171.727 201.806 171.225 201.806 170.724C201.817 170.223 201.822 169.748 201.822 169.3H207.358V177.62H205.87V170.548H203.246ZM216.905 169.3V177.62H215.465V171.284C215.145 171.689 214.793 172.164 214.409 172.708C214.025 173.252 213.641 173.817 213.257 174.404C212.873 174.98 212.505 175.551 212.153 176.116C211.801 176.681 211.497 177.183 211.241 177.62H209.913V169.3H211.353V175.284C211.63 174.825 211.945 174.324 212.297 173.78C212.649 173.225 213.011 172.681 213.385 172.148C213.769 171.604 214.147 171.087 214.521 170.596C214.905 170.095 215.262 169.663 215.593 169.3H216.905ZM221.572 169.092C222.052 169.092 222.5 169.14 222.916 169.236C223.332 169.332 223.689 169.476 223.988 169.668C224.286 169.86 224.521 170.1 224.692 170.388C224.862 170.676 224.948 171.012 224.948 171.396C224.948 171.641 224.905 171.865 224.82 172.068C224.734 172.271 224.628 172.452 224.5 172.612C224.372 172.772 224.228 172.911 224.068 173.028C223.918 173.135 223.774 173.209 223.636 173.252C224.126 173.401 224.51 173.668 224.788 174.052C225.076 174.425 225.22 174.9 225.22 175.476C225.22 176.265 224.9 176.852 224.26 177.236C223.62 177.62 222.75 177.812 221.652 177.812C220.98 177.812 220.398 177.759 219.908 177.652C219.428 177.545 219.086 177.444 218.884 177.348L219.14 176.084C219.31 176.148 219.614 176.239 220.052 176.356C220.5 176.463 221.033 176.516 221.652 176.516C222.324 176.516 222.836 176.415 223.188 176.212C223.54 175.999 223.716 175.684 223.716 175.268C223.716 174.969 223.646 174.729 223.508 174.548C223.38 174.356 223.214 174.212 223.012 174.116C222.809 174.02 222.59 173.956 222.356 173.924C222.121 173.892 221.902 173.876 221.7 173.876H220.308V172.692H221.652C221.844 172.692 222.041 172.681 222.244 172.66C222.457 172.628 222.649 172.569 222.82 172.484C223.001 172.399 223.15 172.281 223.268 172.132C223.385 171.972 223.444 171.764 223.444 171.508C223.444 171.305 223.39 171.135 223.284 170.996C223.188 170.847 223.054 170.724 222.884 170.628C222.713 170.532 222.51 170.463 222.276 170.42C222.052 170.367 221.817 170.34 221.572 170.34C221.38 170.34 221.172 170.356 220.948 170.388C220.724 170.42 220.505 170.463 220.292 170.516C220.078 170.559 219.886 170.607 219.716 170.66C219.545 170.713 219.422 170.761 219.348 170.804L219.076 169.524C219.161 169.492 219.294 169.449 219.476 169.396C219.657 169.343 219.86 169.295 220.084 169.252C220.318 169.209 220.564 169.172 220.82 169.14C221.076 169.108 221.326 169.092 221.572 169.092ZM230.104 176.548C230.456 176.548 230.765 176.543 231.032 176.532C231.309 176.511 231.538 176.479 231.72 176.436V173.956C231.613 173.903 231.437 173.86 231.192 173.828C230.957 173.785 230.669 173.764 230.328 173.764C230.104 173.764 229.864 173.78 229.608 173.812C229.362 173.844 229.133 173.913 228.92 174.02C228.717 174.116 228.546 174.255 228.408 174.436C228.269 174.607 228.2 174.836 228.2 175.124C228.2 175.657 228.37 176.031 228.712 176.244C229.053 176.447 229.517 176.548 230.104 176.548ZM229.976 169.092C230.573 169.092 231.074 169.172 231.48 169.332C231.896 169.481 232.226 169.7 232.472 169.988C232.728 170.265 232.909 170.601 233.016 170.996C233.122 171.38 233.176 171.807 233.176 172.276V177.476C233.048 177.497 232.866 177.529 232.632 177.572C232.408 177.604 232.152 177.636 231.864 177.668C231.576 177.7 231.261 177.727 230.92 177.748C230.589 177.78 230.258 177.796 229.928 177.796C229.458 177.796 229.026 177.748 228.632 177.652C228.237 177.556 227.896 177.407 227.608 177.204C227.32 176.991 227.096 176.713 226.936 176.372C226.776 176.031 226.696 175.62 226.696 175.14C226.696 174.681 226.786 174.287 226.968 173.956C227.16 173.625 227.416 173.359 227.736 173.156C228.056 172.953 228.429 172.804 228.856 172.708C229.282 172.612 229.73 172.564 230.2 172.564C230.349 172.564 230.504 172.575 230.664 172.596C230.824 172.607 230.973 172.628 231.112 172.66C231.261 172.681 231.389 172.703 231.496 172.724C231.602 172.745 231.677 172.761 231.72 172.772V172.356C231.72 172.111 231.693 171.871 231.64 171.636C231.586 171.391 231.49 171.177 231.352 170.996C231.213 170.804 231.021 170.655 230.776 170.548C230.541 170.431 230.232 170.372 229.848 170.372C229.357 170.372 228.925 170.409 228.552 170.484C228.189 170.548 227.917 170.617 227.736 170.692L227.56 169.46C227.752 169.375 228.072 169.295 228.52 169.22C228.968 169.135 229.453 169.092 229.976 169.092ZM246.038 177.62H244.55V170.548H240.838V177.62H239.35V169.3H246.038V177.62ZM255.944 173.46C255.944 174.121 255.848 174.719 255.656 175.252C255.464 175.785 255.192 176.244 254.84 176.628C254.499 177.012 254.088 177.311 253.608 177.524C253.128 177.727 252.606 177.828 252.04 177.828C251.475 177.828 250.952 177.727 250.472 177.524C249.992 177.311 249.576 177.012 249.224 176.628C248.883 176.244 248.616 175.785 248.424 175.252C248.232 174.719 248.136 174.121 248.136 173.46C248.136 172.809 248.232 172.217 248.424 171.684C248.616 171.14 248.883 170.676 249.224 170.292C249.576 169.908 249.992 169.615 250.472 169.412C250.952 169.199 251.475 169.092 252.04 169.092C252.606 169.092 253.128 169.199 253.608 169.412C254.088 169.615 254.499 169.908 254.84 170.292C255.192 170.676 255.464 171.14 255.656 171.684C255.848 172.217 255.944 172.809 255.944 173.46ZM254.392 173.46C254.392 172.521 254.179 171.78 253.752 171.236C253.336 170.681 252.766 170.404 252.04 170.404C251.315 170.404 250.739 170.681 250.312 171.236C249.896 171.78 249.688 172.521 249.688 173.46C249.688 174.399 249.896 175.145 250.312 175.7C250.739 176.244 251.315 176.516 252.04 176.516C252.766 176.516 253.336 176.244 253.752 175.7C254.179 175.145 254.392 174.399 254.392 173.46ZM136.015 195.46C136.015 196.121 135.919 196.719 135.727 197.252C135.535 197.785 135.263 198.244 134.911 198.628C134.569 199.012 134.159 199.311 133.679 199.524C133.199 199.727 132.676 199.828 132.111 199.828C131.545 199.828 131.023 199.727 130.543 199.524C130.063 199.311 129.647 199.012 129.295 198.628C128.953 198.244 128.687 197.785 128.495 197.252C128.303 196.719 128.207 196.121 128.207 195.46C128.207 194.809 128.303 194.217 128.495 193.684C128.687 193.14 128.953 192.676 129.295 192.292C129.647 191.908 130.063 191.615 130.543 191.412C131.023 191.199 131.545 191.092 132.111 191.092C132.676 191.092 133.199 191.199 133.679 191.412C134.159 191.615 134.569 191.908 134.911 192.292C135.263 192.676 135.535 193.14 135.727 193.684C135.919 194.217 136.015 194.809 136.015 195.46ZM134.463 195.46C134.463 194.521 134.249 193.78 133.823 193.236C133.407 192.681 132.836 192.404 132.111 192.404C131.385 192.404 130.809 192.681 130.383 193.236C129.967 193.78 129.759 194.521 129.759 195.46C129.759 196.399 129.967 197.145 130.383 197.7C130.809 198.244 131.385 198.516 132.111 198.516C132.836 198.516 133.407 198.244 133.823 197.7C134.249 197.145 134.463 196.399 134.463 195.46ZM139.452 192.26C139.783 191.993 140.167 191.791 140.604 191.652C141.052 191.503 141.479 191.428 141.884 191.428C143.079 191.428 143.98 191.796 144.588 192.532C145.207 193.257 145.516 194.271 145.516 195.572C145.516 196.127 145.441 196.66 145.292 197.172C145.143 197.684 144.908 198.137 144.588 198.532C144.279 198.927 143.884 199.241 143.404 199.476C142.924 199.711 142.353 199.828 141.692 199.828C140.935 199.828 140.305 199.689 139.804 199.412C139.303 199.135 138.903 198.756 138.604 198.276C138.316 197.796 138.113 197.236 137.996 196.596C137.879 195.956 137.82 195.279 137.82 194.564C137.82 193.636 137.884 192.772 138.012 191.972C138.151 191.172 138.396 190.468 138.748 189.86C139.1 189.252 139.585 188.751 140.204 188.356C140.833 187.951 141.639 187.679 142.62 187.54C142.908 187.497 143.159 187.465 143.372 187.444C143.596 187.412 143.788 187.385 143.948 187.364C144.119 187.343 144.273 187.321 144.412 187.3C144.551 187.268 144.695 187.236 144.844 187.204L145.004 188.548C144.929 188.569 144.849 188.585 144.764 188.596C144.689 188.607 144.577 188.623 144.428 188.644C144.289 188.665 144.097 188.692 143.852 188.724C143.617 188.756 143.308 188.793 142.924 188.836C141.868 188.953 141.057 189.273 140.492 189.796C139.927 190.319 139.58 191.14 139.452 192.26ZM139.356 194.804C139.356 195.305 139.388 195.78 139.452 196.228C139.527 196.676 139.649 197.071 139.82 197.412C140.001 197.753 140.241 198.025 140.54 198.228C140.839 198.42 141.223 198.516 141.692 198.516C142.097 198.516 142.444 198.441 142.732 198.292C143.02 198.132 143.255 197.919 143.436 197.652C143.617 197.385 143.751 197.076 143.836 196.724C143.921 196.361 143.964 195.977 143.964 195.572C143.964 195.209 143.927 194.857 143.852 194.516C143.788 194.175 143.665 193.871 143.484 193.604C143.303 193.337 143.057 193.124 142.748 192.964C142.449 192.804 142.071 192.724 141.612 192.724C141.164 192.724 140.732 192.82 140.316 193.012C139.911 193.204 139.596 193.439 139.372 193.716C139.361 193.833 139.356 193.999 139.356 194.212C139.356 194.425 139.356 194.623 139.356 194.804ZM148.744 192.548H146.6V191.3H150.232V194.484C150.317 194.463 150.429 194.441 150.568 194.42C150.717 194.399 150.872 194.377 151.032 194.356C151.202 194.335 151.378 194.319 151.56 194.308C151.741 194.297 151.912 194.292 152.072 194.292C152.53 194.292 152.962 194.345 153.368 194.452C153.773 194.548 154.125 194.708 154.424 194.932C154.733 195.145 154.978 195.428 155.16 195.78C155.341 196.121 155.432 196.532 155.432 197.012C155.432 197.513 155.346 197.94 155.176 198.292C155.005 198.644 154.76 198.932 154.44 199.156C154.12 199.38 153.736 199.54 153.288 199.636C152.85 199.743 152.36 199.796 151.816 199.796C151.282 199.796 150.76 199.764 150.248 199.7C149.736 199.647 149.234 199.561 148.744 199.444V192.548ZM151.896 198.58C152.525 198.58 153.021 198.457 153.384 198.212C153.746 197.967 153.928 197.572 153.928 197.028C153.928 196.761 153.874 196.532 153.768 196.34C153.661 196.148 153.512 195.993 153.32 195.876C153.138 195.748 152.925 195.657 152.68 195.604C152.434 195.54 152.173 195.508 151.896 195.508C151.608 195.508 151.309 195.519 151 195.54C150.701 195.551 150.445 195.583 150.232 195.636V198.5C150.296 198.511 150.392 198.521 150.52 198.532C150.648 198.543 150.786 198.553 150.936 198.564C151.096 198.564 151.256 198.569 151.416 198.58C151.586 198.58 151.746 198.58 151.896 198.58ZM156.722 195.476C156.722 194.74 156.829 194.1 157.042 193.556C157.256 193.001 157.538 192.543 157.89 192.18C158.242 191.817 158.648 191.545 159.106 191.364C159.565 191.183 160.034 191.092 160.514 191.092C161.634 191.092 162.493 191.444 163.09 192.148C163.688 192.841 163.986 193.903 163.986 195.332C163.986 195.396 163.986 195.481 163.986 195.588C163.986 195.684 163.981 195.775 163.97 195.86H158.274C158.338 196.724 158.589 197.38 159.026 197.828C159.464 198.276 160.146 198.5 161.074 198.5C161.597 198.5 162.034 198.457 162.386 198.372C162.749 198.276 163.021 198.185 163.202 198.1L163.41 199.348C163.229 199.444 162.909 199.545 162.45 199.652C162.002 199.759 161.49 199.812 160.914 199.812C160.189 199.812 159.56 199.705 159.026 199.492C158.504 199.268 158.072 198.964 157.73 198.58C157.389 198.196 157.133 197.743 156.962 197.22C156.802 196.687 156.722 196.105 156.722 195.476ZM162.434 194.66C162.445 193.988 162.274 193.439 161.922 193.012C161.581 192.575 161.106 192.356 160.498 192.356C160.157 192.356 159.853 192.425 159.586 192.564C159.33 192.692 159.112 192.863 158.93 193.076C158.749 193.289 158.605 193.535 158.498 193.812C158.402 194.089 158.338 194.372 158.306 194.66H162.434ZM158.962 189.764C158.717 189.764 158.498 189.679 158.306 189.508C158.125 189.327 158.034 189.097 158.034 188.82C158.034 188.543 158.125 188.319 158.306 188.148C158.498 187.967 158.717 187.876 158.962 187.876C159.208 187.876 159.421 187.967 159.602 188.148C159.794 188.319 159.89 188.543 159.89 188.82C159.89 189.097 159.794 189.327 159.602 189.508C159.421 189.679 159.208 189.764 158.962 189.764ZM162.002 189.764C161.757 189.764 161.538 189.679 161.346 189.508C161.165 189.327 161.074 189.097 161.074 188.82C161.074 188.543 161.165 188.319 161.346 188.148C161.538 187.967 161.757 187.876 162.002 187.876C162.248 187.876 162.461 187.967 162.642 188.148C162.834 188.319 162.93 188.543 162.93 188.82C162.93 189.097 162.834 189.327 162.642 189.508C162.461 189.679 162.248 189.764 162.002 189.764ZM167.708 193.492C167.601 194.548 167.521 195.604 167.468 196.66C167.414 197.705 167.372 198.692 167.34 199.62H165.916C165.937 198.969 165.969 198.292 166.012 197.588C166.054 196.873 166.102 196.159 166.156 195.444C166.209 194.719 166.268 194.009 166.332 193.316C166.396 192.612 166.465 191.94 166.54 191.3H167.9C168.241 191.855 168.641 192.617 169.1 193.588C169.558 194.548 170.086 195.657 170.684 196.916C171.281 195.657 171.809 194.548 172.268 193.588C172.726 192.617 173.126 191.855 173.468 191.3H174.844C174.918 191.94 174.988 192.612 175.052 193.316C175.116 194.009 175.174 194.719 175.228 195.444C175.281 196.159 175.329 196.873 175.372 197.588C175.414 198.292 175.446 198.969 175.468 199.62H173.996C173.964 198.692 173.921 197.705 173.868 196.66C173.814 195.604 173.734 194.548 173.628 193.492C173.457 193.823 173.26 194.223 173.036 194.692C172.812 195.151 172.588 195.62 172.364 196.1C172.15 196.58 171.948 197.039 171.756 197.476C171.564 197.913 171.414 198.26 171.308 198.516H170.06C169.942 198.249 169.782 197.897 169.58 197.46C169.388 197.023 169.18 196.564 168.956 196.084C168.742 195.593 168.524 195.119 168.3 194.66C168.076 194.191 167.878 193.801 167.708 193.492ZM180.643 198.548C180.995 198.548 181.304 198.543 181.571 198.532C181.848 198.511 182.078 198.479 182.259 198.436V195.956C182.152 195.903 181.976 195.86 181.731 195.828C181.496 195.785 181.208 195.764 180.867 195.764C180.643 195.764 180.403 195.78 180.147 195.812C179.902 195.844 179.672 195.913 179.459 196.02C179.256 196.116 179.086 196.255 178.947 196.436C178.808 196.607 178.739 196.836 178.739 197.124C178.739 197.657 178.91 198.031 179.251 198.244C179.592 198.447 180.056 198.548 180.643 198.548ZM180.515 191.092C181.112 191.092 181.614 191.172 182.019 191.332C182.435 191.481 182.766 191.7 183.011 191.988C183.267 192.265 183.448 192.601 183.555 192.996C183.662 193.38 183.715 193.807 183.715 194.276V199.476C183.587 199.497 183.406 199.529 183.171 199.572C182.947 199.604 182.691 199.636 182.403 199.668C182.115 199.7 181.8 199.727 181.459 199.748C181.128 199.78 180.798 199.796 180.467 199.796C179.998 199.796 179.566 199.748 179.171 199.652C178.776 199.556 178.435 199.407 178.147 199.204C177.859 198.991 177.635 198.713 177.475 198.372C177.315 198.031 177.235 197.62 177.235 197.14C177.235 196.681 177.326 196.287 177.507 195.956C177.699 195.625 177.955 195.359 178.275 195.156C178.595 194.953 178.968 194.804 179.395 194.708C179.822 194.612 180.27 194.564 180.739 194.564C180.888 194.564 181.043 194.575 181.203 194.596C181.363 194.607 181.512 194.628 181.651 194.66C181.8 194.681 181.928 194.703 182.035 194.724C182.142 194.745 182.216 194.761 182.259 194.772V194.356C182.259 194.111 182.232 193.871 182.179 193.636C182.126 193.391 182.03 193.177 181.891 192.996C181.752 192.804 181.56 192.655 181.315 192.548C181.08 192.431 180.771 192.372 180.387 192.372C179.896 192.372 179.464 192.409 179.091 192.484C178.728 192.548 178.456 192.617 178.275 192.692L178.099 191.46C178.291 191.375 178.611 191.295 179.059 191.22C179.507 191.135 179.992 191.092 180.515 191.092ZM187.77 193.492C187.664 194.548 187.584 195.604 187.53 196.66C187.477 197.705 187.434 198.692 187.402 199.62H185.978C186 198.969 186.032 198.292 186.074 197.588C186.117 196.873 186.165 196.159 186.218 195.444C186.272 194.719 186.33 194.009 186.394 193.316C186.458 192.612 186.528 191.94 186.602 191.3H187.962C188.304 191.855 188.704 192.617 189.162 193.588C189.621 194.548 190.149 195.657 190.746 196.916C191.344 195.657 191.872 194.548 192.33 193.588C192.789 192.617 193.189 191.855 193.53 191.3H194.906C194.981 191.94 195.05 192.612 195.114 193.316C195.178 194.009 195.237 194.719 195.29 195.444C195.344 196.159 195.392 196.873 195.434 197.588C195.477 198.292 195.509 198.969 195.53 199.62H194.058C194.026 198.692 193.984 197.705 193.93 196.66C193.877 195.604 193.797 194.548 193.69 193.492C193.52 193.823 193.322 194.223 193.098 194.692C192.874 195.151 192.65 195.62 192.426 196.1C192.213 196.58 192.01 197.039 191.818 197.476C191.626 197.913 191.477 198.26 191.37 198.516H190.122C190.005 198.249 189.845 197.897 189.642 197.46C189.45 197.023 189.242 196.564 189.018 196.084C188.805 195.593 188.586 195.119 188.362 194.66C188.138 194.191 187.941 193.801 187.77 193.492Z" fill="white"/>
<defs>
<linearGradient id="paint0_linear_5214_19054" x1="26.5" y1="260.12" x2="295.5" y2="10.1199" gradientUnits="userSpaceOnUse">
<stop stop-color="#E75F00"/>
<stop offset="1" stop-color="#0E0E0E"/>
</linearGradient>
</defs>
</svg>
